<svg width="197" height="67" viewBox="0 0 197 67" fill="none" xmlns="http://www.w3.org/2000/svg">
<g clip-path="url(#clip0_358_814)">
<path d="M38.484 50.3599C37.8984 49.3618 37.238 48.4258 36.2093 47.9041C34.9529 47.2657 33.7295 47.2714 32.5653 48.1602C31.1942 49.2036 30.4087 50.7102 29.7762 52.3373C29.7067 52.5181 29.797 52.5727 29.9378 52.6198C31.0152 52.9832 31.7746 53.7968 32.4506 54.7233C32.5965 54.923 32.6122 55.1264 32.4523 55.3053C32.004 55.8043 31.5869 56.358 31.0743 56.7685C29.5329 58.0077 27.7795 58.7459 25.9115 59.196C24.132 59.6273 22.3456 59.7026 20.5662 59.2902C18.653 58.8476 17.0195 57.8457 15.737 56.2205C14.922 55.1866 14.4077 53.9945 14.3243 52.6292C14.1609 49.955 15.0802 47.6518 16.6285 45.6781C17.4782 44.5953 18.5591 43.7102 19.6 42.8231C21.5046 41.2017 23.5742 39.8627 25.8089 38.842C27.1209 38.2431 28.4677 37.7516 29.8631 37.4691C31.3297 37.1734 32.8068 36.9945 34.3169 37.1979C35.8669 37.407 36.9026 38.3674 37.1563 40.0397C37.2085 40.3749 37.2328 40.7158 37.2728 41.083C37.3353 41.0303 37.3718 41.0058 37.3979 40.9719C38.1833 40.036 38.7916 38.9851 39.0522 37.7403C39.299 36.5689 39.3928 35.3994 38.5413 34.4126C38.5205 34.3881 38.5083 34.3561 38.4892 34.3279C37.4796 32.7874 36.4943 31.228 35.4534 29.712C34.5445 28.3881 33.5227 27.1527 32.64 25.8081C31.2029 23.6141 29.7797 21.4032 28.459 19.1264C27.2495 17.0397 26.1339 14.8853 25.0617 12.7102C23.2301 8.99452 21.5706 5.18661 20.1474 1.26194C20.0084 0.877764 19.8624 0.495466 19.6782 -0.00170898C19.5844 0.150833 19.5461 0.231813 19.494 0.299609C18.6095 1.41637 17.7372 2.54066 16.8353 3.63859C16.5833 3.94556 16.5121 4.2111 16.5798 4.62918C16.8752 6.44462 17.1707 8.26383 17.3636 10.0943C17.5877 12.2073 17.7876 14.3297 17.8501 16.4522C17.9144 18.6687 17.8658 20.8928 17.7528 23.1075C17.6538 25.083 17.4504 27.0567 17.2002 29.0152C17.0073 30.5143 16.7171 32.0021 16.3904 33.4748C16.0029 35.2224 15.5789 36.9644 15.0854 38.68C14.3833 41.1245 13.5266 43.5105 12.4631 45.7949C11.5752 47.7045 10.6385 49.5896 9.64454 51.4352C8.96161 52.7045 8.19005 53.923 7.37853 55.0981C6.32894 56.6179 5.22896 58.1038 4.089 59.5463C2.88649 61.068 1.55191 62.4559 0.139131 63.7572C0.050507 63.8401 -0.0068382 64.0265 -0.001625 64.1621C0.0209655 64.6499 0.0748353 65.1339 0.118279 65.6179C0.158247 66.051 0.20169 66.4842 0.252084 67.0002C0.469301 66.8382 0.648288 66.7422 0.785569 66.599C2.09234 65.2488 3.43561 63.9361 4.68331 62.5237C6.76859 60.1603 8.79131 57.7309 10.8384 55.3279C11.3614 54.7139 11.4049 54.7158 11.709 55.4898C12.5935 57.7516 13.8412 59.7083 15.7214 61.1433C16.95 62.0793 18.3176 62.6574 19.786 62.9022C21.3325 63.1603 22.8913 63.1169 24.4344 62.8006C26.7925 62.3147 29.0481 61.5275 31.0274 59.9983C33.1213 58.3825 34.6644 56.2883 35.5837 53.6725C35.6289 53.5388 35.7001 53.4164 35.7557 53.2977C36.3153 53.4446 36.7515 54.1753 36.9374 54.778C37.4205 56.3523 37.3006 57.9606 37.1181 59.5576C36.8505 61.9173 36.3205 64.2224 35.7192 66.5275C35.82 66.3749 35.9278 66.2243 36.0251 66.0661C36.9131 64.6499 37.6794 63.1602 38.3728 61.6216C39.0296 60.1602 39.5927 58.6744 39.7595 57.036C40.0114 54.6555 39.6865 52.4051 38.484 50.3599ZM18.5556 39.8213C18.6078 39.6216 18.6773 39.2883 18.785 38.9719C19.4992 36.8646 20.031 34.6989 20.4619 32.5068C20.5019 32.3034 20.5419 32.1038 20.5818 31.9004C20.7017 31.294 20.8234 30.6894 20.9381 30.0812C21.0927 29.2714 21.2352 28.4616 21.3569 27.6461C21.6054 25.9606 21.7774 24.2619 21.9355 22.5633C22.1336 20.454 22.191 18.3354 22.1527 16.2167C22.1458 15.8439 22.1215 15.4691 22.1441 15.0981C22.1545 14.9512 22.2501 14.7233 22.3491 14.6932C22.4742 14.6555 22.6967 14.7309 22.7801 14.8439C23.0876 15.2544 23.3709 15.6894 23.6333 16.1358C24.6829 17.9192 25.7203 19.7139 26.7664 21.4992C27.8456 23.341 28.9351 25.1772 30.0125 27.0209C31.2446 29.1207 32.4645 31.2262 33.6965 33.326C33.8373 33.567 33.7956 33.7535 33.5679 33.8457C33.3177 33.9456 33.0501 34.0096 32.7859 34.0548C30.3601 34.4522 28.061 35.3015 25.8506 36.4183C24.2936 37.2054 22.7853 38.1151 21.27 39.0021C20.6479 39.3655 20.064 39.8137 19.4627 40.2224C19.3741 40.2827 19.2872 40.3467 19.1951 40.3975C19.1812 40.4051 19.1673 40.4126 19.1534 40.4183C19.1274 40.4314 19.1013 40.4427 19.077 40.4503C19.0631 40.4578 19.0492 40.4616 19.0335 40.4672C19.0075 40.4748 18.9831 40.4804 18.9605 40.4842C18.9379 40.4879 18.9153 40.4898 18.8945 40.4898C18.8406 40.4898 18.792 40.4766 18.7503 40.454C18.7277 40.4408 18.7103 40.4258 18.6929 40.407C18.6651 40.3768 18.6425 40.3429 18.6234 40.2996C18.6095 40.2714 18.5991 40.2393 18.5904 40.2054C18.5643 40.1038 18.5522 39.9757 18.5556 39.8213Z" fill="#1141D8"/>
<path d="M56.33 21.3616C55.614 21.3616 54.9502 21.273 54.3351 21.0941C53.7199 20.9171 53.1882 20.6553 52.7433 20.3126C52.2984 19.9698 51.9492 19.5405 51.6972 19.0263C51.4452 18.5122 51.3184 17.9115 51.3184 17.226C51.3184 16.452 51.48 15.7683 51.8014 15.177C52.1247 14.5857 52.5747 14.081 53.1551 13.6629C53.7355 13.2429 54.4115 12.9039 55.1866 12.644C55.9598 12.3842 56.7974 12.1958 57.7011 12.0828L57.9113 14.2561C57.3726 14.3201 56.8218 14.4237 56.2587 14.5706C55.6957 14.7175 55.1744 14.9115 54.693 15.1525C54.2117 15.3936 53.8259 15.6855 53.5322 16.0282C53.2386 16.371 53.0926 16.7721 53.0926 17.2297C53.0926 17.6742 53.2386 18.0433 53.5322 18.3352C53.8259 18.6271 54.2186 18.8399 54.7104 18.9736C55.2022 19.1073 55.7426 19.1732 56.3282 19.1732C56.7731 19.1732 57.1867 19.1412 57.5673 19.0772C57.9478 19.0132 58.3023 18.9246 58.6307 18.8098L59.159 20.9058C58.7246 21.0584 58.2658 21.1732 57.7793 21.2486C57.2944 21.322 56.8113 21.3616 56.33 21.3616ZM54.4306 9.48774C54.1248 9.48774 53.8711 9.37662 53.666 9.1544C53.461 8.93218 53.3585 8.65534 53.3585 8.32578C53.3585 7.98303 53.461 7.70431 53.666 7.48774C53.8711 7.27116 54.1265 7.16382 54.4306 7.16382C54.7347 7.16382 54.9902 7.27116 55.1952 7.48774C55.4003 7.70431 55.5028 7.98303 55.5028 8.32578C55.5028 8.65534 55.4003 8.93218 55.1952 9.1544C54.9902 9.37662 54.7365 9.48774 54.4306 9.48774ZM56.9278 9.48774C56.6219 9.48774 56.3682 9.37662 56.1632 9.1544C55.9581 8.93218 55.8556 8.65534 55.8556 8.32578C55.8556 7.98303 55.9581 7.70431 56.1632 7.48774C56.3682 7.27116 56.6237 7.16382 56.9278 7.16382C57.2319 7.16382 57.4873 7.27116 57.6924 7.48774C57.8974 7.70431 57.9999 7.98303 57.9999 8.32578C57.9999 8.65534 57.8974 8.93218 57.6924 9.1544C57.4873 9.37662 57.2336 9.48774 56.9278 9.48774ZM61.0966 21.9322C60.2764 21.9322 59.6073 21.7966 59.0912 21.5216C58.5751 21.2486 58.1946 20.8324 57.9478 20.273C57.7011 19.7137 57.5777 19.0094 57.5777 18.1582V11.5649H59.3536V18.1582C59.3536 18.5894 59.3953 18.9209 59.477 19.1488C59.5587 19.3766 59.7255 19.5329 59.9775 19.6158C60.2295 19.6987 60.6013 19.7401 61.0948 19.7401H61.816V21.9322H61.0966ZM61.816 21.9322V19.7401C61.9446 19.7401 62.035 19.838 62.0888 20.0358C62.141 20.2335 62.1688 20.4972 62.1688 20.8267C62.1688 21.1582 62.1427 21.4237 62.0888 21.6271C62.0367 21.8305 61.9463 21.9322 61.816 21.9322Z" fill="black"/>
<path d="M61.8166 21.9322C61.688 21.9322 61.5959 21.8305 61.5438 21.6271C61.4917 21.4237 61.4639 21.1507 61.4639 20.8079C61.4639 20.4783 61.4899 20.2166 61.5438 20.0264C61.5959 19.8362 61.688 19.7401 61.8166 19.7401V21.9322ZM61.8166 19.7401H64.8594V21.9322H61.8166V19.7401ZM64.8594 21.9322V19.7401C64.988 19.7401 65.0801 19.838 65.1322 20.0358C65.1844 20.2335 65.2122 20.4972 65.2122 20.8267C65.2122 21.1582 65.1861 21.4237 65.1322 21.6271C65.0801 21.8305 64.988 21.9322 64.8594 21.9322Z" fill="black"/>
<path d="M64.8596 21.9322C64.731 21.9322 64.6389 21.8305 64.5868 21.6271C64.5346 21.4237 64.5068 21.1507 64.5068 20.8079C64.5068 20.4783 64.5329 20.2166 64.5868 20.0264C64.6389 19.8362 64.731 19.7401 64.8596 19.7401V21.9322ZM64.8596 19.7401H67.9024V21.9322H64.8596V19.7401ZM67.9024 21.9322V19.7401C68.031 19.7401 68.1231 19.838 68.1752 20.0358C68.2273 20.2335 68.2551 20.4972 68.2551 20.8267C68.2551 21.1582 68.2291 21.4237 68.1752 21.6271C68.1213 21.8305 68.031 21.9322 67.9024 21.9322Z" fill="black"/>
<path d="M67.9016 21.9322C67.773 21.9322 67.6809 21.8305 67.6288 21.6271C67.5766 21.4237 67.5488 21.1507 67.5488 20.8079C67.5488 20.4783 67.5749 20.2166 67.6288 20.0264C67.6809 19.8362 67.773 19.7401 67.9016 19.7401V21.9322ZM67.9016 19.7401H70.9444V21.9322H67.9016V19.7401ZM70.9426 21.9322V19.7401C71.0712 19.7401 71.1633 19.838 71.2154 20.0358C71.2676 20.2335 71.2954 20.4972 71.2954 20.8267C71.2954 21.1582 71.2693 21.4237 71.2154 21.6271C71.1633 21.8305 71.0712 21.9322 70.9426 21.9322Z" fill="black"/>
<path d="M70.9426 21.9322C70.814 21.9322 70.7219 21.8305 70.6698 21.6271C70.6176 21.4237 70.5898 21.1507 70.5898 20.8079C70.5898 20.4783 70.6159 20.2166 70.6698 20.0264C70.7219 19.8362 70.814 19.7401 70.9426 19.7401V21.9322ZM70.9426 19.7401H73.9854V21.9322H70.9426V19.7401ZM73.9854 21.9322V19.7401C74.114 19.7401 74.2061 19.838 74.2582 20.0358C74.3103 20.2335 74.3381 20.4972 74.3381 20.8267C74.3381 21.1582 74.3121 21.4237 74.2582 21.6271C74.2043 21.8305 74.114 21.9322 73.9854 21.9322Z" fill="black"/>
<path d="M73.9856 21.9322C73.857 21.9322 73.7649 21.8305 73.7127 21.6271C73.6606 21.4237 73.6328 21.1507 73.6328 20.8079C73.6328 20.4783 73.6589 20.2166 73.7127 20.0264C73.7649 19.8362 73.857 19.7401 73.9856 19.7401V21.9322ZM73.9856 19.7401H77.0283V21.9322H73.9856V19.7401ZM77.0283 21.9322V19.7401C77.1569 19.7401 77.249 19.838 77.3012 20.0358C77.3533 20.2335 77.3811 20.4972 77.3811 20.8267C77.3811 21.1582 77.355 21.4237 77.3012 21.6271C77.2473 21.8305 77.1569 21.9322 77.0283 21.9322Z" fill="black"/>
<path d="M77.0285 21.9322C76.8999 21.9322 76.8079 21.8305 76.7557 21.6271C76.7036 21.4237 76.6758 21.1507 76.6758 20.8079C76.6758 20.4783 76.7019 20.2166 76.7557 20.0264C76.8079 19.8362 76.8999 19.7401 77.0285 19.7401V21.9322ZM77.0285 19.7401H80.0713V21.9322H77.0285V19.7401ZM80.0696 21.9322V19.7401C80.1982 19.7401 80.2903 19.838 80.3424 20.0358C80.3945 20.2335 80.4223 20.4972 80.4223 20.8267C80.4223 21.1582 80.3963 21.4237 80.3424 21.6271C80.2903 21.8305 80.1982 21.9322 80.0696 21.9322Z" fill="black"/>
<path d="M80.0696 21.9322C79.941 21.9322 79.8489 21.8305 79.7967 21.6271C79.7446 21.4237 79.7168 21.1507 79.7168 20.8079C79.7168 20.4783 79.7429 20.2166 79.7967 20.0264C79.8489 19.8362 79.941 19.7401 80.0696 19.7401V21.9322ZM80.0696 19.7401H83.1123V21.9322H80.0696V19.7401ZM83.1123 21.9322V19.7401C83.2409 19.7401 83.333 19.838 83.3852 20.0358C83.4373 20.2335 83.4651 20.4972 83.4651 20.8267C83.4651 21.1582 83.439 21.4237 83.3852 21.6271C83.3313 21.8305 83.2409 21.9322 83.1123 21.9322Z" fill="black"/>
<path d="M83.1125 21.9322C82.9839 21.9322 82.8918 21.8305 82.8397 21.6271C82.7876 21.4237 82.7598 21.1507 82.7598 20.8079C82.7598 20.4783 82.7858 20.2166 82.8397 20.0264C82.8918 19.8362 82.9839 19.7401 83.1125 19.7401V21.9322ZM83.1125 19.7401H86.1553V21.9322H83.1125V19.7401ZM86.1536 21.9322V19.7401C86.2822 19.7401 86.3743 19.838 86.4264 20.0358C86.4785 20.2335 86.5063 20.4972 86.5063 20.8267C86.5063 21.1582 86.4803 21.4237 86.4264 21.6271C86.3743 21.8305 86.2839 21.9322 86.1536 21.9322Z" fill="black"/>
<path d="M86.1555 21.9322C86.0269 21.9322 85.9348 21.8305 85.8827 21.6271C85.8305 21.4237 85.8027 21.1507 85.8027 20.8079C85.8027 20.4783 85.8288 20.2166 85.8827 20.0264C85.9348 19.8362 86.0269 19.7401 86.1555 19.7401V21.9322ZM86.1555 19.7401H89.1983V21.9322H86.1555V19.7401ZM89.1965 21.9322V19.7401C89.3251 19.7401 89.4172 19.838 89.4693 20.0358C89.5215 20.2335 89.5493 20.4972 89.5493 20.8267C89.5493 21.1582 89.5232 21.4237 89.4693 21.6271C89.4172 21.8305 89.3251 21.9322 89.1965 21.9322Z" fill="black"/>
<path d="M89.1965 21.9322C89.0679 21.9322 88.9758 21.8305 88.9237 21.6271C88.8716 21.4237 88.8438 21.1507 88.8438 20.8079C88.8438 20.4783 88.8698 20.2166 88.9237 20.0264C88.9758 19.8362 89.0679 19.7401 89.1965 19.7401V21.9322ZM89.1965 19.7401H92.2393V21.9322H89.1965V19.7401ZM92.2393 21.9322V19.7401C92.3679 19.7401 92.46 19.838 92.5121 20.0358C92.5642 20.2335 92.592 20.4972 92.592 20.8267C92.592 21.1582 92.566 21.4237 92.5121 21.6271C92.4582 21.8305 92.3679 21.9322 92.2393 21.9322Z" fill="black"/>
<path d="M92.2385 21.9322C92.1099 21.9322 92.0178 21.8305 91.9657 21.6271C91.9135 21.4237 91.8857 21.1507 91.8857 20.8079C91.8857 20.4783 91.9118 20.2166 91.9657 20.0264C92.0178 19.8362 92.1099 19.7401 92.2385 19.7401V21.9322ZM92.2385 19.7401H95.2813V21.9322H92.2385V19.7401ZM95.2795 21.9322V19.7401C95.4081 19.7401 95.5002 19.838 95.5524 20.0358C95.6045 20.2335 95.6323 20.4972 95.6323 20.8267C95.6323 21.1582 95.6062 21.4237 95.5524 21.6271C95.5002 21.8305 95.4099 21.9322 95.2795 21.9322Z" fill="black"/>
<path d="M95.2795 21.9322C95.1509 21.9322 95.0588 21.8305 95.0067 21.6271C94.9546 21.4237 94.9268 21.1507 94.9268 20.8079C94.9268 20.4783 94.9528 20.2166 95.0067 20.0264C95.0588 19.8362 95.1509 19.7401 95.2795 19.7401V21.9322ZM95.2795 19.7401H98.3223V21.9322H95.2795V19.7401ZM98.3223 21.9322V19.7401C98.4509 19.7401 98.543 19.838 98.5951 20.0358C98.6472 20.2335 98.6751 20.4972 98.6751 20.8267C98.6751 21.1582 98.649 21.4237 98.5951 21.6271C98.543 21.8305 98.4509 21.9322 98.3223 21.9322Z" fill="black"/>
<path d="M98.3225 21.9322C98.1939 21.9322 98.1018 21.8305 98.0497 21.6271C97.9975 21.4237 97.9697 21.1507 97.9697 20.8079C97.9697 20.4783 97.9958 20.2166 98.0497 20.0264C98.1018 19.8362 98.1939 19.7401 98.3225 19.7401V21.9322ZM98.3225 19.7401H101.365V21.9322H98.3225V19.7401ZM101.365 21.9322V19.7401C101.494 19.7401 101.586 19.838 101.638 20.0358C101.69 20.2335 101.718 20.4972 101.718 20.8267C101.718 21.1582 101.692 21.4237 101.638 21.6271C101.584 21.8305 101.494 21.9322 101.365 21.9322Z" fill="black"/>
<path d="M101.365 21.9322C101.237 21.9322 101.145 21.8305 101.093 21.6271C101.041 21.4237 101.013 21.1507 101.013 20.8079C101.013 20.4783 101.039 20.2166 101.093 20.0264C101.145 19.8362 101.237 19.7401 101.365 19.7401V21.9322ZM101.365 19.7401H104.408V21.9322H101.365V19.7401ZM104.406 21.9322V19.7401C104.535 19.7401 104.627 19.838 104.679 20.0358C104.731 20.2335 104.759 20.4972 104.759 20.8267C104.759 21.1582 104.733 21.4237 104.679 21.6271C104.627 21.8305 104.535 21.9322 104.406 21.9322Z" fill="black"/>
<path d="M104.406 21.9322C104.278 21.9322 104.186 21.8305 104.134 21.6271C104.082 21.4237 104.054 21.1507 104.054 20.8079C104.054 20.4783 104.08 20.2166 104.134 20.0264C104.186 19.8362 104.278 19.7401 104.406 19.7401V21.9322ZM104.406 19.7401H107.449V21.9322H104.406V19.7401ZM107.449 21.9322V19.7401C107.578 19.7401 107.67 19.838 107.722 20.0358C107.774 20.2335 107.802 20.4972 107.802 20.8267C107.802 21.1582 107.776 21.4237 107.722 21.6271C107.668 21.8305 107.578 21.9322 107.449 21.9322Z" fill="black"/>
<path d="M107.449 21.9322C107.321 21.9322 107.229 21.8305 107.177 21.6271C107.124 21.4237 107.097 21.1507 107.097 20.8079C107.097 20.4783 107.123 20.2166 107.177 20.0264C107.229 19.8362 107.321 19.7401 107.449 19.7401V21.9322ZM107.449 19.7401H110.492V21.9322H107.449V19.7401ZM110.492 21.9322V19.7401C110.621 19.7401 110.713 19.838 110.765 20.0358C110.817 20.2335 110.845 20.4972 110.845 20.8267C110.845 21.1582 110.819 21.4237 110.765 21.6271C110.711 21.8305 110.621 21.9322 110.492 21.9322Z" fill="black"/>
<path d="M110.492 21.9322C110.364 21.9322 110.272 21.8305 110.22 21.6271C110.167 21.4237 110.14 21.1507 110.14 20.8079C110.14 20.4783 110.166 20.2166 110.22 20.0264C110.272 19.8362 110.364 19.7401 110.492 19.7401V21.9322ZM110.492 19.7401H113.535V21.9322H110.492V19.7401ZM113.533 21.9322V19.7401C113.662 19.7401 113.754 19.838 113.806 20.0358C113.858 20.2335 113.886 20.4972 113.886 20.8267C113.886 21.1582 113.86 21.4237 113.806 21.6271C113.754 21.8305 113.662 21.9322 113.533 21.9322Z" fill="black"/>
<path d="M113.533 21.9322C113.405 21.9322 113.313 21.8305 113.261 21.6271C113.208 21.4237 113.181 21.1507 113.181 20.8079C113.181 20.4783 113.207 20.2166 113.261 20.0264C113.313 19.8362 113.405 19.7401 113.533 19.7401V21.9322ZM113.533 19.7401H116.576V21.9322H113.533V19.7401ZM116.576 21.9322V19.7401C116.705 19.7401 116.797 19.838 116.849 20.0358C116.901 20.2335 116.929 20.4972 116.929 20.8267C116.929 21.1582 116.903 21.4237 116.849 21.6271C116.795 21.8305 116.705 21.9322 116.576 21.9322Z" fill="black"/>
<path d="M116.576 21.9322C116.448 21.9322 116.356 21.8305 116.304 21.6271C116.251 21.4237 116.224 21.1507 116.224 20.8079C116.224 20.4783 116.25 20.2166 116.304 20.0264C116.356 19.8362 116.448 19.7401 116.576 19.7401V21.9322ZM116.576 19.7401H119.619V21.9322H116.576V19.7401ZM119.617 21.9322V19.7401C119.746 19.7401 119.838 19.838 119.89 20.0358C119.942 20.2335 119.97 20.4972 119.97 20.8267C119.97 21.1582 119.944 21.4237 119.89 21.6271C119.838 21.8305 119.748 21.9322 119.617 21.9322Z" fill="black"/>
<path d="M119.617 21.9322C119.489 21.9322 119.397 21.8305 119.345 21.6271C119.292 21.4237 119.265 21.1507 119.265 20.8079C119.265 20.4783 119.291 20.2166 119.345 20.0264C119.397 19.8362 119.489 19.7401 119.617 19.7401V21.9322ZM119.617 19.7401H122.66V21.9322H119.617V19.7401ZM122.66 21.9322V19.7401C122.789 19.7401 122.881 19.838 122.933 20.0358C122.985 20.2335 123.013 20.4972 123.013 20.8267C123.013 21.1582 122.987 21.4237 122.933 21.6271C122.881 21.8305 122.789 21.9322 122.66 21.9322Z" fill="black"/>
<path d="M122.659 21.9322C122.531 21.9322 122.439 21.8305 122.387 21.6271C122.334 21.4237 122.307 21.1507 122.307 20.8079C122.307 20.4783 122.333 20.2166 122.387 20.0264C122.439 19.8362 122.531 19.7401 122.659 19.7401V21.9322ZM122.659 19.7401H125.702V21.9322H122.659V19.7401ZM125.702 21.9322V19.7401C125.831 19.7401 125.923 19.838 125.975 20.0358C126.027 20.2335 126.055 20.4972 126.055 20.8267C126.055 21.1582 126.029 21.4237 125.975 21.6271C125.921 21.8305 125.831 21.9322 125.702 21.9322Z" fill="black"/>
<path d="M125.702 21.9322C125.574 21.9322 125.482 21.8305 125.43 21.6271C125.377 21.4237 125.35 21.1507 125.35 20.8079C125.35 20.4783 125.376 20.2166 125.43 20.0264C125.482 19.8362 125.574 19.7401 125.702 19.7401V21.9322ZM125.702 19.7401H128.745V21.9322H125.702V19.7401ZM128.743 21.9322V19.7401C128.872 19.7401 128.964 19.838 129.016 20.0358C129.068 20.2335 129.096 20.4972 129.096 20.8267C129.096 21.1582 129.07 21.4237 129.016 21.6271C128.964 21.8305 128.872 21.9322 128.743 21.9322Z" fill="black"/>
<path d="M128.743 21.9322C128.615 21.9322 128.523 21.8305 128.471 21.6271C128.418 21.4237 128.391 21.1507 128.391 20.8079C128.391 20.4783 128.417 20.2166 128.471 20.0264C128.523 19.8362 128.615 19.7401 128.743 19.7401V21.9322ZM128.743 19.7401H131.786V21.9322H128.743V19.7401ZM131.786 21.9322V19.7401C131.915 19.7401 132.007 19.838 132.059 20.0358C132.111 20.2335 132.139 20.4972 132.139 20.8267C132.139 21.1582 132.113 21.4237 132.059 21.6271C132.007 21.8305 131.915 21.9322 131.786 21.9322Z" fill="black"/>
<path d="M131.786 21.9322C131.658 21.9322 131.566 21.8305 131.514 21.6271C131.461 21.4237 131.434 21.1507 131.434 20.8079C131.434 20.4783 131.46 20.2166 131.514 20.0264C131.566 19.8362 131.658 19.7401 131.786 19.7401V21.9322ZM131.786 19.7401H134.829V21.9322H131.786V19.7401ZM134.829 21.9322V19.7401C134.958 19.7401 135.05 19.838 135.102 20.0358C135.154 20.2335 135.182 20.4972 135.182 20.8267C135.182 21.1582 135.156 21.4237 135.102 21.6271C135.048 21.8305 134.958 21.9322 134.829 21.9322Z" fill="black"/>
<path d="M134.829 21.9322C134.701 21.9322 134.609 21.8305 134.557 21.6271C134.504 21.4237 134.477 21.1507 134.477 20.8079C134.477 20.4783 134.503 20.2166 134.557 20.0264C134.609 19.8362 134.701 19.7401 134.829 19.7401V21.9322ZM134.829 19.7401H137.872V21.9322H134.829V19.7401ZM137.87 21.9322V19.7401C137.999 19.7401 138.091 19.838 138.143 20.0358C138.195 20.2335 138.223 20.4972 138.223 20.8267C138.223 21.1582 138.197 21.4237 138.143 21.6271C138.091 21.8305 137.999 21.9322 137.87 21.9322Z" fill="black"/>
<path d="M137.87 21.9322C137.742 21.9322 137.65 21.8305 137.598 21.6271C137.545 21.4237 137.518 21.1507 137.518 20.8079C137.518 20.4783 137.544 20.2166 137.598 20.0264C137.65 19.8362 137.742 19.7401 137.87 19.7401V21.9322ZM137.87 19.7401H140.913V21.9322H137.87V19.7401ZM140.913 21.9322V19.7401C141.042 19.7401 141.134 19.838 141.186 20.0358C141.238 20.2335 141.266 20.4972 141.266 20.8267C141.266 21.1582 141.24 21.4237 141.186 21.6271C141.132 21.8305 141.042 21.9322 140.913 21.9322Z" fill="black"/>
<path d="M140.913 21.9322C140.785 21.9322 140.693 21.8305 140.64 21.6271C140.588 21.4237 140.561 21.1507 140.561 20.8079C140.561 20.4783 140.587 20.2166 140.64 20.0264C140.693 19.8362 140.785 19.7401 140.913 19.7401V21.9322ZM140.913 19.7401H143.956V21.9322H140.913V19.7401ZM143.954 21.9322V19.7401C144.083 19.7401 144.175 19.838 144.227 20.0358C144.279 20.2335 144.307 20.4972 144.307 20.8267C144.307 21.1582 144.281 21.4237 144.227 21.6271C144.175 21.8305 144.085 21.9322 143.954 21.9322Z" fill="black"/>
<path d="M143.954 21.9322C143.826 21.9322 143.734 21.8305 143.682 21.6271C143.629 21.4237 143.602 21.1507 143.602 20.8079C143.602 20.4783 143.628 20.2166 143.682 20.0264C143.734 19.8362 143.826 19.7401 143.954 19.7401V21.9322ZM143.954 19.7401H146.997V21.9322H143.954V19.7401ZM146.997 21.9322V19.7401C147.126 19.7401 147.218 19.838 147.27 20.0358C147.322 20.2335 147.35 20.4972 147.35 20.8267C147.35 21.1582 147.324 21.4237 147.27 21.6271C147.218 21.8305 147.126 21.9322 146.997 21.9322Z" fill="black"/>
<path d="M146.996 21.9322C146.868 21.9322 146.776 21.8305 146.723 21.6271C146.671 21.4237 146.644 21.1507 146.644 20.8079C146.644 20.4783 146.67 20.2166 146.723 20.0264C146.776 19.8362 146.868 19.7401 146.996 19.7401V21.9322ZM146.996 19.7401H150.039V21.9322H146.996V19.7401ZM150.039 21.9322V19.7401C150.168 19.7401 150.26 19.838 150.312 20.0358C150.364 20.2335 150.39 20.4972 150.39 20.8267C150.39 21.1582 150.364 21.4237 150.312 21.6271C150.258 21.8305 150.168 21.9322 150.039 21.9322Z" fill="black"/>
<path d="M150.039 21.9322C149.911 21.9322 149.819 21.8305 149.767 21.6271C149.715 21.4237 149.688 21.1507 149.688 20.8079C149.688 20.4783 149.715 20.2166 149.767 20.0264C149.819 19.8362 149.911 19.7401 150.039 19.7401V21.9322ZM150.039 19.7401H153.082V21.9322H150.039V19.7401ZM153.081 21.9322V19.7401C153.209 19.7401 153.301 19.838 153.353 20.0358C153.405 20.2335 153.432 20.4972 153.432 20.8267C153.432 21.1582 153.405 21.4237 153.353 21.6271C153.301 21.8305 153.211 21.9322 153.081 21.9322Z" fill="black"/>
<path d="M153.081 21.9322C152.952 21.9322 152.86 21.8305 152.808 21.6271C152.756 21.4237 152.729 21.1507 152.729 20.8079C152.729 20.4783 152.756 20.2166 152.808 20.0264C152.86 19.8362 152.952 19.7401 153.081 19.7401V21.9322ZM153.081 19.7401H156.123V21.9322H153.081V19.7401ZM156.123 21.9322V19.7401C156.252 19.7401 156.344 19.838 156.396 20.0358C156.448 20.2335 156.474 20.4972 156.474 20.8267C156.474 21.1582 156.448 21.4237 156.396 21.6271C156.344 21.8305 156.252 21.9322 156.123 21.9322Z" fill="black"/>
<path d="M156.123 21.9322C155.995 21.9322 155.903 21.8305 155.85 21.6272C155.798 21.4238 155.771 21.1507 155.771 20.8079C155.771 20.4784 155.797 20.2166 155.85 20.0264C155.903 19.8362 155.995 19.7401 156.123 19.7401V21.9322ZM156.123 21.9322V19.7401H157.02C157.524 19.7401 157.899 19.6987 158.144 19.6159C158.391 19.533 158.554 19.3767 158.636 19.1488C158.718 18.9209 158.759 18.5895 158.759 18.1582V12.7477H160.535V18.1601C160.535 19.0113 160.412 19.7157 160.165 20.275C159.918 20.8343 159.538 21.2505 159.022 21.5236C158.506 21.7966 157.838 21.9341 157.018 21.9341H156.123V21.9322ZM158.41 26.582C158.104 26.582 157.851 26.4671 157.646 26.2392C157.44 26.0095 157.338 25.7364 157.338 25.42C157.338 25.0772 157.44 24.7966 157.646 24.582C157.851 24.3654 158.106 24.258 158.41 24.258C158.714 24.258 158.97 24.3654 159.175 24.582C159.38 24.7985 159.482 25.0772 159.482 25.42C159.482 25.7383 159.38 26.0113 159.175 26.2392C158.97 26.469 158.714 26.582 158.41 26.582ZM162.278 21.9322C161.458 21.9322 160.789 21.7966 160.273 21.5217C159.757 21.2486 159.376 20.8324 159.13 20.2731C158.883 19.7138 158.759 19.0095 158.759 18.1582H160.535C160.535 18.5895 160.577 18.9209 160.659 19.1488C160.74 19.3767 160.907 19.533 161.159 19.6159C161.411 19.6987 161.783 19.7401 162.277 19.7401H162.999V21.9322H162.278ZM160.906 26.582C160.6 26.582 160.346 26.4671 160.141 26.2392C159.936 26.0095 159.833 25.7364 159.833 25.42C159.833 25.0772 159.936 24.7966 160.141 24.582C160.346 24.3654 160.601 24.258 160.906 24.258C161.21 24.258 161.465 24.3654 161.67 24.582C161.875 24.7985 161.978 25.0772 161.978 25.42C161.978 25.7383 161.875 26.0113 161.67 26.2392C161.467 26.469 161.211 26.582 160.906 26.582ZM162.999 21.9322V19.7401C163.128 19.7401 163.218 19.8381 163.272 20.0358C163.324 20.2336 163.351 20.4972 163.351 20.8268C163.351 21.1582 163.324 21.4238 163.272 21.6272C163.218 21.8305 163.128 21.9322 162.999 21.9322Z" fill="black"/>
<path d="M162.999 21.9322C162.871 21.9322 162.779 21.8305 162.727 21.6272C162.675 21.4238 162.648 21.1507 162.648 20.8079C162.648 20.4784 162.675 20.2166 162.727 20.0264C162.779 19.8362 162.871 19.7401 162.999 19.7401V21.9322ZM165.46 12.7477H167.236V21.9322H162.999V19.7401H165.462V12.7477H165.46ZM165.672 27.0396C165.344 27.0396 165.066 26.9153 164.836 26.6686C164.607 26.42 164.494 26.1187 164.494 25.7627C164.494 25.3936 164.609 25.0885 164.836 24.8475C165.066 24.6064 165.344 24.4859 165.672 24.4859C166.013 24.4859 166.292 24.6064 166.517 24.8475C166.739 25.0885 166.85 25.3936 166.85 25.7627C166.85 26.1187 166.739 26.42 166.517 26.6686C166.292 26.9153 166.011 27.0396 165.672 27.0396Z" fill="black"/>
<path d="M168.293 24.887C168.856 24.9002 169.306 24.84 169.647 24.7062C169.987 24.5725 170.232 24.3465 170.385 24.0302C170.538 23.7119 170.613 23.3051 170.613 22.8098V12.7477H172.389V22.8098C172.389 23.6874 172.236 24.4369 171.932 25.0584C171.626 25.6799 171.197 26.1563 170.639 26.4878C170.083 26.8174 169.41 26.9887 168.625 27.0019L168.293 24.887ZM171.897 19.7401H174.483V21.9322H171.897V19.7401ZM174.483 21.9322V19.7401C174.611 19.7401 174.702 19.8381 174.756 20.0358C174.808 20.2336 174.834 20.4972 174.834 20.8268C174.834 21.1582 174.808 21.4238 174.756 21.6272C174.702 21.8305 174.611 21.9322 174.483 21.9322Z" fill="black"/>
<path d="M174.481 21.9322C174.352 21.9322 174.262 21.8305 174.208 21.6271C174.156 21.4237 174.13 21.1506 174.13 20.8079C174.13 20.4783 174.156 20.2165 174.208 20.0263C174.26 19.8361 174.352 19.7401 174.481 19.7401V21.9322ZM174.481 21.9322V19.7401H177.4C177.929 19.7401 178.502 19.6422 179.124 19.4444C179.746 19.2486 180.358 18.9943 180.961 18.6817C181.564 18.371 182.118 18.0301 182.622 17.6629C183.126 17.2938 183.528 16.9397 183.826 16.5951C184.125 16.2523 184.275 15.9529 184.275 15.6987C184.275 15.4576 184.134 15.2354 183.853 15.032C183.571 14.8286 183.178 14.661 182.674 14.5273C182.17 14.3936 181.59 14.3277 180.933 14.3277C180.382 14.3277 179.861 14.3785 179.367 14.4802C178.876 14.5819 178.347 14.7344 177.784 14.9378L177.081 15.9284L175.937 15.548L177.503 12.7853C177.984 12.6083 178.505 12.4557 179.069 12.3277C179.632 12.2015 180.259 12.1375 180.951 12.1375C181.971 12.1375 182.862 12.2806 183.623 12.5668C184.384 12.8531 184.98 13.2504 185.408 13.757C185.835 14.2655 186.049 14.8681 186.049 15.5668C186.049 16.1375 185.905 16.6949 185.618 17.2335C185.331 17.774 184.947 18.2787 184.466 18.7476C183.985 19.2184 183.439 19.6459 182.831 20.0339C182.221 20.4218 181.593 20.7589 180.949 21.0433C180.304 21.3295 179.673 21.548 179.058 21.7005C178.443 21.8531 177.889 21.9284 177.397 21.9284H174.481V21.9322ZM183.943 21.9322C182.594 21.9322 181.378 21.6648 180.294 21.1318C179.209 20.5988 178.295 19.8512 177.55 18.8926C176.806 17.9341 176.269 16.8192 175.941 15.548L177.506 14.4237C177.682 15.5047 178.062 16.4444 178.65 17.2448C179.235 18.0452 179.983 18.661 180.891 19.0941C181.8 19.5254 182.817 19.742 183.943 19.742H187.618V21.9341H183.943V21.9322ZM187.618 21.9322V19.7401C187.747 19.7401 187.837 19.838 187.891 20.0358C187.943 20.2335 187.969 20.4971 187.969 20.8267C187.969 21.1582 187.943 21.4237 187.891 21.6271C187.837 21.8305 187.747 21.9322 187.618 21.9322Z" fill="black"/>
<path d="M187.618 21.9322C187.489 21.9322 187.397 21.8305 187.345 21.6271C187.293 21.4237 187.267 21.1506 187.267 20.8079C187.267 20.4783 187.293 20.2165 187.345 20.0263C187.397 19.8361 187.489 19.7401 187.618 19.7401V21.9322ZM187.618 21.9322V19.7401H189.903V6.30505H191.679V21.9322H187.618Z" fill="black"/>
<path d="M195.918 6.30505H194.142V21.9322H195.918V6.30505Z" fill="black"/>
<path d="M50.6172 47.7552C51.1802 47.7684 51.6303 47.7081 51.9709 47.5744C52.3115 47.4407 52.5565 47.2147 52.7094 46.8983C52.8623 46.5801 52.9388 46.1752 52.9388 45.678V35.6158H54.7148V45.678C54.7148 46.5537 54.5618 47.3032 54.2577 47.9266C53.9519 48.548 53.5209 49.0245 52.9649 49.356C52.4088 49.6855 51.7363 49.8588 50.9508 49.8701L50.6172 47.7552Z" fill="black"/>
<path d="M57.1748 29.1732H58.9508V44.8003H57.1748V29.1732ZM58.9508 42.6101H61.043V44.8022H58.9508V42.6101ZM61.043 44.8003V42.6082C61.1716 42.6082 61.262 42.7062 61.3158 42.9039C61.368 43.1017 61.394 43.3653 61.394 43.6949C61.394 44.0263 61.368 44.2919 61.3158 44.4953C61.2637 44.6986 61.1716 44.8003 61.043 44.8003Z" fill="black"/>
<path d="M61.0432 44.8004C60.9146 44.8004 60.8225 44.6987 60.7704 44.4953C60.7182 44.2919 60.6904 44.0188 60.6904 43.6761C60.6904 43.3465 60.7165 43.0847 60.7704 42.8945C60.8225 42.7043 60.9146 42.6083 61.0432 42.6083V44.8004ZM61.0432 42.6102H64.086V44.8022H61.0432V42.6102ZM64.086 44.8004V42.6083C64.2146 42.6083 64.3067 42.7062 64.3588 42.9039C64.4109 43.1017 64.4387 43.3653 64.4387 43.6949C64.4387 44.0264 64.4127 44.2919 64.3588 44.4953C64.3049 44.6987 64.2146 44.8004 64.086 44.8004Z" fill="black"/>
<path d="M64.0862 44.8004C63.9576 44.8004 63.8655 44.6987 63.8133 44.4953C63.7612 44.2919 63.7334 44.0188 63.7334 43.6761C63.7334 43.3465 63.7595 43.0847 63.8133 42.8945C63.8655 42.7043 63.9576 42.6083 64.0862 42.6083V44.8004ZM64.0862 42.6102H67.1289V44.8022H64.0862V42.6102ZM67.1272 44.8004V42.6083C67.2558 42.6083 67.3479 42.7062 67.4 42.9039C67.4521 43.1017 67.48 43.3653 67.48 43.6949C67.48 44.0264 67.4539 44.2919 67.4 44.4953C67.3479 44.6987 67.2575 44.8004 67.1272 44.8004Z" fill="black"/>
<path d="M67.1272 44.8004C66.9986 44.8004 66.9065 44.6987 66.8543 44.4953C66.8022 44.2919 66.7744 44.0188 66.7744 43.6761C66.7744 43.3465 66.8005 43.0847 66.8543 42.8945C66.9065 42.7043 66.9986 42.6083 67.1272 42.6083V44.8004ZM67.1272 42.6102H70.1699V44.8022H67.1272V42.6102ZM70.1699 44.8004V42.6083C70.2985 42.6083 70.3906 42.7062 70.4428 42.9039C70.4949 43.1017 70.5227 43.3653 70.5227 43.6949C70.5227 44.0264 70.4966 44.2919 70.4428 44.4953C70.3906 44.6987 70.2985 44.8004 70.1699 44.8004Z" fill="black"/>
<path d="M70.1701 44.8004C70.0416 44.8004 69.9495 44.6987 69.8973 44.4953C69.8452 44.2919 69.8174 44.0188 69.8174 43.6761C69.8174 43.3465 69.8435 43.0847 69.8973 42.8945C69.9495 42.7043 70.0416 42.6083 70.1701 42.6083V44.8004ZM70.1701 42.6102H73.2129V44.8022H70.1701V42.6102ZM73.2129 44.8004V42.6083C73.3415 42.6083 73.4336 42.7062 73.4857 42.9039C73.5379 43.1017 73.5657 43.3653 73.5657 43.6949C73.5657 44.0264 73.5396 44.2919 73.4857 44.4953C73.4319 44.6987 73.3415 44.8004 73.2129 44.8004Z" fill="black"/>
<path d="M73.2121 44.8004C73.0835 44.8004 72.9914 44.6987 72.9393 44.4953C72.8872 44.2919 72.8594 44.0188 72.8594 43.6761C72.8594 43.3465 72.8854 43.0847 72.9393 42.8945C72.9914 42.7043 73.0835 42.6083 73.2121 42.6083V44.8004ZM73.2121 42.6102H76.2549V44.8022H73.2121V42.6102ZM76.2532 44.8004V42.6083C76.3818 42.6083 76.4739 42.7062 76.526 42.9039C76.5781 43.1017 76.6059 43.3653 76.6059 43.6949C76.6059 44.0264 76.5799 44.2919 76.526 44.4953C76.4739 44.6987 76.3835 44.8004 76.2532 44.8004Z" fill="black"/>
<path d="M76.2532 44.8004C76.1246 44.8004 76.0325 44.6987 75.9803 44.4953C75.9282 44.2919 75.9004 44.0188 75.9004 43.6761C75.9004 43.3465 75.9265 43.0847 75.9803 42.8945C76.0325 42.7043 76.1246 42.6083 76.2532 42.6083V44.8004ZM76.2532 42.6102H79.2959V44.8022H76.2532V42.6102ZM79.2959 44.8004V42.6083C79.4245 42.6083 79.5166 42.7062 79.5688 42.9039C79.6209 43.1017 79.6487 43.3653 79.6487 43.6949C79.6487 44.0264 79.6226 44.2919 79.5688 44.4953C79.5166 44.6987 79.4245 44.8004 79.2959 44.8004Z" fill="black"/>
<path d="M79.2961 44.8004C79.1675 44.8004 79.0754 44.6987 79.0233 44.4953C78.9712 44.2919 78.9434 44.0188 78.9434 43.6761C78.9434 43.3465 78.9694 43.0847 79.0233 42.8945C79.0754 42.7043 79.1675 42.6083 79.2961 42.6083V44.8004ZM79.2961 42.6102H82.3389V44.8022H79.2961V42.6102ZM82.3389 44.8004V42.6083C82.4675 42.6083 82.5596 42.7062 82.6117 42.9039C82.6638 43.1017 82.6916 43.3653 82.6916 43.6949C82.6916 44.0264 82.6656 44.2919 82.6117 44.4953C82.5578 44.6987 82.4675 44.8004 82.3389 44.8004Z" fill="black"/>
<path d="M82.3391 44.8004C82.2105 44.8004 82.1184 44.6987 82.0663 44.4953C82.0141 44.2919 81.9863 44.0188 81.9863 43.6761C81.9863 43.3465 82.0124 43.0847 82.0663 42.8945C82.1184 42.7043 82.2105 42.6083 82.3391 42.6083V44.8004ZM82.3391 42.6102H85.3819V44.8022H82.3391V42.6102ZM85.3801 44.8004V42.6083C85.5087 42.6083 85.6008 42.7062 85.6529 42.9039C85.7051 43.1017 85.7329 43.3653 85.7329 43.6949C85.7329 44.0264 85.7068 44.2919 85.6529 44.4953C85.6008 44.6987 85.5087 44.8004 85.3801 44.8004Z" fill="black"/>
<path d="M85.3801 44.8004C85.2515 44.8004 85.1594 44.6987 85.1073 44.4953C85.0552 44.2919 85.0273 44.0188 85.0273 43.6761C85.0273 43.3465 85.0534 43.0847 85.1073 42.8945C85.1594 42.7043 85.2515 42.6083 85.3801 42.6083V44.8004ZM85.3801 42.6102H88.4229V44.8022H85.3801V42.6102ZM88.4229 44.8004V42.6083C88.5515 42.6083 88.6436 42.7062 88.6957 42.9039C88.7478 43.1017 88.7756 43.3653 88.7756 43.6949C88.7756 44.0264 88.7496 44.2919 88.6957 44.4953C88.6418 44.6987 88.5515 44.8004 88.4229 44.8004Z" fill="black"/>
<path d="M88.4231 44.8004C88.2945 44.8004 88.2024 44.6987 88.1502 44.4953C88.0981 44.2919 88.0703 44.0188 88.0703 43.6761C88.0703 43.3465 88.0964 43.0847 88.1502 42.8945C88.2024 42.7043 88.2945 42.6083 88.4231 42.6083V44.8004ZM88.4231 42.6102H91.4658V44.8022H88.4231V42.6102ZM91.4641 44.8004V42.6083C91.5927 42.6083 91.6848 42.7062 91.7369 42.9039C91.7891 43.1017 91.8169 43.3653 91.8169 43.6949C91.8169 44.0264 91.7908 44.2919 91.7369 44.4953C91.6848 44.6987 91.5944 44.8004 91.4641 44.8004Z" fill="black"/>
<path d="M91.4641 44.8004C91.3355 44.8004 91.2434 44.6987 91.1913 44.4953C91.1391 44.2919 91.1113 44.0188 91.1113 43.6761C91.1113 43.3465 91.1374 43.0847 91.1913 42.8945C91.2434 42.7043 91.3355 42.6083 91.4641 42.6083V44.8004ZM91.4641 42.6102H94.5069V44.8022H91.4641V42.6102ZM94.5069 44.8004V42.6083C94.6354 42.6083 94.7276 42.7062 94.7797 42.9039C94.8318 43.1017 94.8596 43.3653 94.8596 43.6949C94.8596 44.0264 94.8336 44.2919 94.7797 44.4953C94.7276 44.6987 94.6354 44.8004 94.5069 44.8004Z" fill="black"/>
<path d="M94.5071 44.8004C94.3785 44.8004 94.2864 44.6987 94.2342 44.4953C94.1821 44.2919 94.1543 44.0188 94.1543 43.6761C94.1543 43.3465 94.1804 43.0847 94.2342 42.8945C94.2864 42.7043 94.3785 42.6083 94.5071 42.6083V44.8004ZM94.5071 42.6102H97.5498V44.8022H94.5071V42.6102ZM97.5498 44.8004V42.6083C97.6784 42.6083 97.7705 42.7062 97.8227 42.9039C97.8748 43.1017 97.9026 43.3653 97.9026 43.6949C97.9026 44.0264 97.8765 44.2919 97.8227 44.4953C97.7688 44.6987 97.6784 44.8004 97.5498 44.8004Z" fill="black"/>
<path d="M97.549 44.8004C97.4205 44.8004 97.3284 44.6987 97.2762 44.4953C97.2241 44.2919 97.1963 44.0188 97.1963 43.6761C97.1963 43.3465 97.2223 43.0847 97.2762 42.8945C97.3284 42.7043 97.4205 42.6083 97.549 42.6083V44.8004ZM97.549 42.6102H100.592V44.8022H97.549V42.6102ZM100.59 44.8004V42.6083C100.719 42.6083 100.811 42.7062 100.863 42.9039C100.915 43.1017 100.943 43.3653 100.943 43.6949C100.943 44.0264 100.917 44.2919 100.863 44.4953C100.811 44.6987 100.72 44.8004 100.59 44.8004Z" fill="black"/>
<path d="M100.59 44.8004C100.461 44.8004 100.369 44.6987 100.317 44.4953C100.265 44.2919 100.237 44.0188 100.237 43.6761C100.237 43.3465 100.263 43.0847 100.317 42.8945C100.369 42.7043 100.461 42.6083 100.59 42.6083V44.8004ZM100.59 42.6102H103.633V44.8022H100.59V42.6102ZM103.633 44.8004V42.6083C103.761 42.6083 103.854 42.7062 103.906 42.9039C103.958 43.1017 103.986 43.3653 103.986 43.6949C103.986 44.0264 103.96 44.2919 103.906 44.4953C103.854 44.6987 103.761 44.8004 103.633 44.8004Z" fill="black"/>
<path d="M103.633 44.8004C103.504 44.8004 103.412 44.6987 103.36 44.4953C103.308 44.2919 103.28 44.0188 103.28 43.6761C103.28 43.3465 103.306 43.0847 103.36 42.8945C103.412 42.7043 103.504 42.6083 103.633 42.6083V44.8004ZM103.633 42.6102H106.676V44.8022H103.633V42.6102ZM106.676 44.8004V42.6083C106.804 42.6083 106.896 42.7062 106.949 42.9039C107.001 43.1017 107.029 43.3653 107.029 43.6949C107.029 44.0264 107.002 44.2919 106.949 44.4953C106.895 44.6987 106.804 44.8004 106.676 44.8004Z" fill="black"/>
<path d="M106.676 44.8004C106.547 44.8004 106.455 44.6987 106.403 44.4953C106.351 44.2919 106.323 44.0188 106.323 43.6761C106.323 43.3465 106.349 43.0847 106.403 42.8945C106.455 42.7043 106.547 42.6083 106.676 42.6083V44.8004ZM106.676 42.6102H109.719V44.8022H106.676V42.6102ZM109.717 44.8004V42.6083C109.846 42.6083 109.938 42.7062 109.99 42.9039C110.042 43.1017 110.07 43.3653 110.07 43.6949C110.07 44.0264 110.044 44.2919 109.99 44.4953C109.938 44.6987 109.846 44.8004 109.717 44.8004Z" fill="black"/>
<path d="M109.717 44.8004C109.588 44.8004 109.496 44.6987 109.444 44.4953C109.392 44.2919 109.364 44.0188 109.364 43.6761C109.364 43.3465 109.39 43.0847 109.444 42.8945C109.496 42.7043 109.588 42.6083 109.717 42.6083V44.8004ZM109.717 42.6102H112.76V44.8022H109.717V42.6102ZM112.76 44.8004V42.6083C112.888 42.6083 112.98 42.7062 113.033 42.9039C113.085 43.1017 113.113 43.3653 113.113 43.6949C113.113 44.0264 113.086 44.2919 113.033 44.4953C112.98 44.6987 112.888 44.8004 112.76 44.8004Z" fill="black"/>
<path d="M112.76 44.8004C112.631 44.8004 112.539 44.6987 112.487 44.4953C112.435 44.2919 112.407 44.0188 112.407 43.6761C112.407 43.3465 112.433 43.0847 112.487 42.8945C112.539 42.7043 112.631 42.6083 112.76 42.6083V44.8004ZM112.76 42.6102H115.803V44.8022H112.76V42.6102ZM115.803 44.8004V42.6083C115.931 42.6083 116.023 42.7062 116.076 42.9039C116.128 43.1017 116.156 43.3653 116.156 43.6949C116.156 44.0264 116.129 44.2919 116.076 44.4953C116.022 44.6987 115.931 44.8004 115.803 44.8004Z" fill="black"/>
<path d="M115.803 44.8004C115.674 44.8004 115.582 44.6987 115.53 44.4953C115.478 44.2919 115.45 44.0188 115.45 43.6761C115.45 43.3465 115.476 43.0847 115.53 42.8945C115.582 42.7043 115.674 42.6083 115.803 42.6083V44.8004ZM115.803 42.6102H118.846V44.8022H115.803V42.6102ZM118.844 44.8004V42.6083C118.973 42.6083 119.065 42.7062 119.117 42.9039C119.169 43.1017 119.197 43.3653 119.197 43.6949C119.197 44.0264 119.171 44.2919 119.117 44.4953C119.065 44.6987 118.973 44.8004 118.844 44.8004Z" fill="black"/>
<path d="M118.844 44.8004C118.715 44.8004 118.623 44.6987 118.571 44.4953C118.519 44.2919 118.491 44.0188 118.491 43.6761C118.491 43.3465 118.517 43.0847 118.571 42.8945C118.623 42.7043 118.715 42.6083 118.844 42.6083V44.8004ZM118.844 42.6102H121.887V44.8022H118.844V42.6102ZM121.887 44.8004V42.6083C122.015 42.6083 122.107 42.7062 122.16 42.9039C122.212 43.1017 122.24 43.3653 122.24 43.6949C122.24 44.0264 122.213 44.2919 122.16 44.4953C122.106 44.6987 122.015 44.8004 121.887 44.8004Z" fill="black"/>
<path d="M121.886 44.8004C121.757 44.8004 121.665 44.6987 121.613 44.4953C121.561 44.2919 121.533 44.0188 121.533 43.6761C121.533 43.3465 121.559 43.0847 121.613 42.8945C121.665 42.7043 121.757 42.6083 121.886 42.6083V44.8004ZM121.886 42.6102H124.929V44.8022H121.886V42.6102ZM124.927 44.8004V42.6083C125.056 42.6083 125.148 42.7062 125.2 42.9039C125.252 43.1017 125.28 43.3653 125.28 43.6949C125.28 44.0264 125.254 44.2919 125.2 44.4953C125.148 44.6987 125.057 44.8004 124.927 44.8004Z" fill="black"/>
<path d="M124.927 44.8004C124.798 44.8004 124.706 44.6987 124.654 44.4953C124.602 44.2919 124.574 44.0188 124.574 43.6761C124.574 43.3465 124.6 43.0847 124.654 42.8945C124.706 42.7043 124.798 42.6083 124.927 42.6083V44.8004ZM124.927 42.6102H127.97V44.8022H124.927V42.6102ZM127.97 44.8004V42.6083C128.098 42.6083 128.19 42.7062 128.243 42.9039C128.295 43.1017 128.323 43.3653 128.323 43.6949C128.323 44.0264 128.296 44.2919 128.243 44.4953C128.19 44.6987 128.098 44.8004 127.97 44.8004Z" fill="black"/>
<path d="M127.97 44.8004C127.841 44.8004 127.749 44.6987 127.697 44.4953C127.645 44.2919 127.617 44.0188 127.617 43.6761C127.617 43.3465 127.643 43.0847 127.697 42.8945C127.749 42.7043 127.841 42.6083 127.97 42.6083V44.8004ZM127.97 42.6102H131.013V44.8022H127.97V42.6102ZM131.013 44.8004V42.6083C131.141 42.6083 131.233 42.7062 131.286 42.9039C131.338 43.1017 131.365 43.3653 131.365 43.6949C131.365 44.0264 131.339 44.2919 131.286 44.4953C131.232 44.6987 131.141 44.8004 131.013 44.8004Z" fill="black"/>
<path d="M131.013 44.8004C130.884 44.8004 130.792 44.6987 130.74 44.4953C130.688 44.2919 130.66 44.0188 130.66 43.6761C130.66 43.3465 130.686 43.0847 130.74 42.8945C130.792 42.7043 130.884 42.6083 131.013 42.6083V44.8004ZM131.013 42.6102H134.056V44.8022H131.013V42.6102ZM134.054 44.8004V42.6083C134.183 42.6083 134.275 42.7062 134.327 42.9039C134.379 43.1017 134.407 43.3653 134.407 43.6949C134.407 44.0264 134.381 44.2919 134.327 44.4953C134.275 44.6987 134.184 44.8004 134.054 44.8004Z" fill="black"/>
<path d="M134.054 44.8004C133.925 44.8004 133.833 44.6987 133.781 44.4953C133.729 44.2919 133.701 44.0188 133.701 43.6761C133.701 43.3465 133.727 43.0847 133.781 42.8945C133.833 42.7043 133.925 42.6083 134.054 42.6083V44.8004ZM134.054 42.6102H137.097V44.8022H134.054V42.6102ZM137.097 44.8004V42.6083C137.225 42.6083 137.317 42.7062 137.37 42.9039C137.422 43.1017 137.449 43.3653 137.449 43.6949C137.449 44.0264 137.423 44.2919 137.37 44.4953C137.317 44.6987 137.225 44.8004 137.097 44.8004Z" fill="black"/>
<path d="M137.097 44.8003C136.969 44.8003 136.878 44.6986 136.824 44.4952C136.772 44.2918 136.746 44.0188 136.746 43.676C136.746 43.3465 136.772 43.0847 136.824 42.8945C136.876 42.7043 136.969 42.6082 137.097 42.6082V44.8003ZM137.097 44.8003V42.6082C137.66 42.6082 138.129 42.4877 138.505 42.2466C138.88 42.0056 139.21 41.6741 139.499 41.2561C139.785 40.8361 140.063 40.3672 140.335 39.8455C140.604 39.337 140.892 38.8361 141.196 38.3408C141.501 37.8455 141.836 37.3954 142.199 36.9886C142.562 36.5819 142.967 36.2542 143.412 36.0075C143.857 35.7589 144.363 35.6365 144.924 35.6365C145.546 35.6365 146.076 35.7796 146.516 36.0659C146.955 36.3521 147.31 36.7325 147.579 37.209C147.848 37.6854 148.045 38.2165 148.168 38.8003C148.292 39.3841 148.352 39.9755 148.352 40.5724C148.352 41.2203 148.271 41.9547 148.106 42.774C147.941 43.5932 147.671 44.3596 147.296 45.0696L145.749 43.983C146.019 43.4745 146.224 42.9284 146.364 42.3446C146.505 41.7608 146.576 41.1694 146.576 40.5724C146.576 39.6327 146.436 38.9397 146.154 38.4952C145.873 38.0508 145.463 37.8286 144.924 37.8286C144.583 37.8286 144.265 37.9208 143.966 38.1054C143.667 38.29 143.353 38.6082 143.026 39.0583C142.698 39.5103 142.31 40.1412 141.865 40.9547C141.396 41.8191 140.936 42.5367 140.486 43.1073C140.034 43.6798 139.542 44.1054 139.009 44.3841C138.472 44.661 137.836 44.8003 137.097 44.8003ZM147.209 42.8756L147.298 45.0677C146.243 45.1318 145.329 45.1224 144.554 45.0395C143.78 44.9566 143.103 44.8078 142.522 44.5913C141.942 44.3747 141.426 44.0998 140.976 43.7627C140.524 43.4256 140.105 43.0414 139.718 42.6101L141.002 41.0847C141.434 41.5668 141.925 41.951 142.47 42.2372C143.016 42.5235 143.671 42.7175 144.439 42.8191C145.207 42.9208 146.13 42.9397 147.209 42.8756ZM150.092 44.8003C149.329 44.8003 148.703 44.6647 148.21 44.3898C147.718 44.1167 147.351 43.7005 147.11 43.1412C146.87 42.5819 146.75 41.8775 146.75 41.0263V40.5687H148.351V41.0263C148.351 41.4576 148.392 41.789 148.474 42.0169C148.556 42.2448 148.723 42.4011 148.975 42.4839C149.227 42.5668 149.598 42.6082 150.092 42.6082H150.813V44.8003H150.092ZM150.813 44.8003V42.6082C150.942 42.6082 151.034 42.7062 151.086 42.9039C151.138 43.1016 151.164 43.3653 151.164 43.6949C151.164 44.0263 151.138 44.2918 151.086 44.4952C151.034 44.6986 150.942 44.8003 150.813 44.8003Z" fill="black"/>
<path d="M150.813 44.8004C150.684 44.8004 150.592 44.6987 150.54 44.4953C150.488 44.2919 150.46 44.0188 150.46 43.6761C150.46 43.3465 150.486 43.0847 150.54 42.8945C150.592 42.7043 150.684 42.6083 150.813 42.6083V44.8004ZM150.813 44.8004V42.6083H151.709C152.213 42.6083 152.589 42.5668 152.834 42.484C153.08 42.4011 153.244 42.2448 153.325 42.0169C153.407 41.7891 153.449 41.4576 153.449 41.0264V35.6139H155.225V41.0264C155.225 41.8776 155.101 42.5819 154.855 43.1412C154.608 43.7006 154.227 44.1168 153.711 44.3898C153.195 44.6629 152.528 44.8004 151.708 44.8004H150.813ZM153.1 30.9661C153.404 30.9661 153.659 31.0772 153.864 31.2994C154.069 31.5216 154.172 31.7985 154.172 32.1281C154.172 32.4708 154.069 32.7514 153.864 32.9661C153.659 33.1827 153.404 33.29 153.1 33.29C152.794 33.29 152.54 33.1827 152.335 32.9661C152.13 32.7495 152.027 32.4708 152.027 32.1281C152.027 31.7985 152.13 31.5216 152.335 31.2994C152.538 31.0772 152.794 30.9661 153.1 30.9661ZM154.347 28.6215C154.651 28.6215 154.907 28.7326 155.112 28.9548C155.317 29.177 155.419 29.4539 155.419 29.7834C155.419 30.1262 155.317 30.4068 155.112 30.6215C154.907 30.838 154.651 30.9454 154.347 30.9454C154.054 30.9454 153.802 30.838 153.591 30.6215C153.381 30.4049 153.275 30.1262 153.275 29.7834C153.275 29.4539 153.381 29.177 153.591 28.9548C153.802 28.7326 154.054 28.6215 154.347 28.6215ZM156.968 44.8004C156.148 44.8004 155.479 44.6648 154.962 44.3898C154.446 44.1168 154.066 43.7006 153.819 43.1412C153.572 42.5819 153.449 41.8776 153.449 41.0264H155.225C155.225 41.4576 155.267 41.7891 155.348 42.0169C155.43 42.2448 155.597 42.4011 155.849 42.484C156.101 42.5668 156.473 42.6083 156.966 42.6083H157.687V44.8004H156.968ZM155.595 30.9661C155.899 30.9661 156.155 31.0772 156.36 31.2994C156.565 31.5216 156.667 31.7985 156.667 32.1281C156.667 32.4708 156.565 32.7514 156.36 32.9661C156.155 33.1827 155.899 33.29 155.595 33.29C155.289 33.29 155.035 33.1827 154.83 32.9661C154.625 32.7495 154.523 32.4708 154.523 32.1281C154.523 31.7985 154.625 31.5216 154.83 31.2994C155.035 31.0772 155.291 30.9661 155.595 30.9661ZM157.689 44.8004V42.6083C157.818 42.6083 157.908 42.7062 157.962 42.9039C158.014 43.1017 158.04 43.3653 158.04 43.6949C158.04 44.0264 158.014 44.2919 157.962 44.4953C157.908 44.6987 157.818 44.8004 157.689 44.8004Z" fill="black"/>
<path d="M157.689 44.8003C157.56 44.8003 157.468 44.6986 157.416 44.4953C157.364 44.2919 157.336 44.0188 157.336 43.676C157.336 43.3465 157.362 43.0847 157.416 42.8945C157.468 42.7043 157.56 42.6083 157.689 42.6083V44.8003ZM157.689 44.8003V42.6083H158.585C159.089 42.6083 159.465 42.5668 159.71 42.484C159.956 42.4011 160.12 42.2448 160.201 42.0169C160.283 41.789 160.325 41.4576 160.325 41.0263V35.6139H162.101V41.0263C162.101 41.8776 161.977 42.5819 161.731 43.1412C161.484 43.7005 161.103 44.1167 160.587 44.3898C160.071 44.6629 159.404 44.8003 158.584 44.8003H157.689ZM159.974 33.29C159.668 33.29 159.414 33.1789 159.209 32.9566C159.004 32.7344 158.902 32.4576 158.902 32.128C158.902 31.7853 159.004 31.5066 159.209 31.29C159.414 31.0734 159.67 30.9661 159.974 30.9661C160.278 30.9661 160.533 31.0734 160.738 31.29C160.943 31.5066 161.046 31.7853 161.046 32.128C161.046 32.4595 160.943 32.7344 160.738 32.9566C160.533 33.1789 160.278 33.29 159.974 33.29ZM163.842 44.8003C163.022 44.8003 162.353 44.6648 161.837 44.3898C161.321 44.1167 160.94 43.7005 160.693 43.1412C160.446 42.5819 160.323 41.8776 160.323 41.0263H162.099C162.099 41.4576 162.141 41.789 162.222 42.0169C162.304 42.2448 162.471 42.4011 162.723 42.484C162.975 42.5668 163.347 42.6083 163.84 42.6083H164.563V44.8003H163.842ZM162.471 33.29C162.165 33.29 161.911 33.1789 161.706 32.9566C161.501 32.7344 161.399 32.4576 161.399 32.128C161.399 31.7853 161.501 31.5066 161.706 31.29C161.911 31.0734 162.167 30.9661 162.471 30.9661C162.775 30.9661 163.03 31.0734 163.236 31.29C163.441 31.5066 163.543 31.7853 163.543 32.128C163.543 32.4595 163.441 32.7344 163.236 32.9566C163.03 33.1789 162.775 33.29 162.471 33.29ZM164.563 44.8003V42.6083C164.692 42.6083 164.782 42.7062 164.836 42.9039C164.888 43.1017 164.914 43.3653 164.914 43.6949C164.914 44.0263 164.888 44.2919 164.836 44.4953C164.784 44.6986 164.692 44.8003 164.563 44.8003Z" fill="black"/>
<path d="M164.564 44.8003C164.435 44.8003 164.343 44.6986 164.291 44.4952C164.239 44.2919 164.213 44.0188 164.213 43.676C164.213 43.3465 164.239 43.0847 164.291 42.8945C164.343 42.7043 164.435 42.6082 164.564 42.6082V44.8003ZM164.564 44.8003V42.6082H165.443C165.947 42.6082 166.322 42.5668 166.569 42.4839C166.816 42.4011 166.979 42.2448 167.061 42.0169C167.143 41.789 167.184 41.4576 167.184 41.0263V37.5009H168.96V41.0263C168.96 41.8775 168.837 42.5819 168.59 43.1412C168.343 43.7005 167.963 44.1167 167.447 44.3898C166.931 44.6629 166.262 44.8003 165.441 44.8003H164.564ZM170.613 44.8003C170.225 44.8003 169.848 44.725 169.478 44.5725C169.108 44.4199 168.771 44.1751 168.467 43.838C168.161 43.5009 167.921 43.0734 167.746 42.5517L168.924 41.6742C169.03 42.0056 169.219 42.258 169.496 42.4369C169.77 42.6158 170.06 42.7043 170.366 42.7043C170.742 42.7043 171.08 42.5687 171.386 42.2937C171.69 42.0207 171.843 41.5988 171.843 41.0263V36.548H173.619V41.0263C173.619 41.8775 173.473 42.5819 173.18 43.1412C172.886 43.7005 172.512 44.1167 172.054 44.3898C171.598 44.6647 171.117 44.8003 170.613 44.8003ZM175.274 44.8003C174.886 44.8003 174.509 44.725 174.139 44.5725C173.769 44.4199 173.432 44.1751 173.127 43.838C172.822 43.5009 172.582 43.0734 172.406 42.5517L173.584 41.6742C173.69 42.0056 173.88 42.258 174.156 42.4369C174.431 42.6158 174.721 42.7043 175.027 42.7043C175.402 42.7043 175.741 42.5687 176.047 42.2937C176.351 42.0207 176.504 41.5988 176.504 41.0263V35.6139H178.28V41.0263C178.28 41.8775 178.134 42.5819 177.84 43.1412C177.547 43.7005 177.173 44.1167 176.714 44.3898C176.259 44.6647 175.778 44.8003 175.274 44.8003Z" fill="black"/>
<path d="M180.742 42.6102H186.598V44.8022H180.742V42.6102ZM182.254 30.3559H185.981V31.6893H182.254V30.3559ZM184.682 31.3088C184.06 31.3088 183.554 31.1789 183.161 30.9171C182.768 30.6572 182.572 30.2731 182.572 29.7646C182.572 29.4086 182.666 29.1036 182.854 28.8493C183.041 28.5951 183.286 28.3992 183.592 28.258C183.896 28.1186 184.225 28.049 184.577 28.049C184.789 28.049 184.996 28.0753 185.201 28.1262C185.406 28.177 185.603 28.2523 185.79 28.354L185.333 29.4407C185.239 29.4162 185.132 29.3955 185.008 29.3842C184.885 29.371 184.777 29.3653 184.683 29.3653C184.355 29.3653 184.098 29.4162 183.91 29.5179C183.722 29.6196 183.629 29.7344 183.629 29.8606C183.629 29.9868 183.722 30.1017 183.91 30.2034C184.098 30.3051 184.355 30.3559 184.683 30.3559V31.3088H184.682ZM183.222 33.29H184.998V44.8004H183.222V33.29ZM186.053 44.8004C185.924 44.8004 185.832 44.6987 185.78 44.4953C185.728 44.2919 185.702 44.0188 185.702 43.6761C185.702 43.3465 185.728 43.0847 185.78 42.8945C185.832 42.7043 185.924 42.6083 186.053 42.6083V44.8004ZM186.053 44.8004V42.6083H186.598C187.102 42.6083 187.478 42.5668 187.723 42.484C187.969 42.4011 188.133 42.2448 188.214 42.0169C188.296 41.7891 188.338 41.4576 188.338 41.0264V29.1732H190.114V41.0264C190.114 41.8776 189.99 42.5819 189.744 43.1412C189.497 43.7006 189.116 44.1168 188.6 44.3898C188.084 44.6629 187.417 44.8004 186.597 44.8004H186.053ZM191.855 44.8004C191.035 44.8004 190.366 44.6648 189.85 44.3898C189.334 44.1168 188.953 43.7006 188.706 43.1412C188.459 42.5819 188.336 41.8776 188.336 41.0264H190.112C190.112 41.4576 190.154 41.7891 190.235 42.0169C190.317 42.2448 190.484 42.4011 190.736 42.484C190.988 42.5668 191.36 42.6083 191.853 42.6083H192.204V44.8004H191.855ZM192.208 44.8004V42.6083C192.336 42.6083 192.427 42.7062 192.481 42.9039C192.533 43.1017 192.559 43.3653 192.559 43.6949C192.559 44.0264 192.533 44.2919 192.481 44.4953C192.427 44.6987 192.336 44.8004 192.208 44.8004Z" fill="black"/>
<path d="M192.207 44.8003C192.079 44.8003 191.987 44.6986 191.935 44.4953C191.883 44.2919 191.856 44.0188 191.856 43.676C191.856 43.3465 191.883 43.0847 191.935 42.8945C191.987 42.7043 192.079 42.6082 192.207 42.6082V44.8003ZM192.207 44.8003V42.6082H194.493V29.1732H196.269V44.8003H192.207Z" fill="black"/>
<path d="M53.4714 55.7609H54.5853L57.4039 62.7477H56.2431L53.9962 56.9492L51.758 62.7477H50.625L53.4714 55.7609ZM52.043 60.1319H55.9025V61.13H52.043V60.1319Z" fill="black"/>
<path d="M58.5742 57.4482H59.6342V62.7477H58.5742V57.4482ZM61.3285 58.4464C60.9792 58.4256 60.6751 58.4916 60.4214 58.6403C60.1677 58.7891 59.9696 58.9981 59.8323 59.2637C59.6933 59.5292 59.6255 59.8362 59.6255 60.1827L59.3301 60.1432C59.3301 59.5518 59.4101 59.0528 59.5699 58.646C59.7298 58.2392 59.9592 57.9322 60.2616 57.7232C60.5622 57.5142 60.9184 57.4087 61.3303 57.4087V58.4464H61.3285Z" fill="black"/>
<path d="M63.9883 60.3823C63.6442 60.3823 63.3905 60.4388 63.2237 60.5518C63.0569 60.6648 62.9752 60.8513 62.9752 61.1111C62.9752 61.3578 63.0586 61.5537 63.2289 61.7006C63.3975 61.8475 63.6303 61.9209 63.924 61.9209C64.1881 61.9209 64.4245 61.8701 64.633 61.7722C64.8415 61.6723 65.0084 61.5386 65.13 61.3673C65.2534 61.1978 65.3177 61.0057 65.3229 60.7929L65.5262 61.7609C65.3715 62.1074 65.1387 62.3673 64.8259 62.5386C64.5131 62.7119 64.1378 62.7985 63.7033 62.7985C63.354 62.7985 63.0499 62.7251 62.791 62.5782C62.5321 62.4313 62.334 62.2336 62.1915 61.985C62.0507 61.7345 61.9795 61.4577 61.9795 61.1507C61.9795 60.6723 62.1411 60.2882 62.4626 60.0019C62.7858 59.7157 63.2411 59.5688 63.8302 59.5631H65.4515V60.3823H63.9883ZM65.3159 59.3842C65.3159 59.0377 65.2169 58.7684 65.0205 58.5763C64.8242 58.3842 64.5322 58.2863 64.1447 58.2863C63.9119 58.2863 63.6738 58.3334 63.4305 58.4256C63.1872 58.5179 62.9439 58.6554 62.6989 58.8343L62.2662 58.0961C62.4939 57.9435 62.7076 57.8174 62.9109 57.7175C63.1142 57.6177 63.3297 57.5424 63.5608 57.4878C63.7919 57.4351 64.063 57.4087 64.3758 57.4087C65.0084 57.4087 65.4949 57.5744 65.8355 57.9021C66.1761 58.2317 66.3499 58.6855 66.3551 59.2637L66.3638 62.7477H65.3229L65.3159 59.3842Z" fill="black"/>
<path d="M68.208 55.3408H69.268V62.7476H68.208V55.3408ZM70.9797 57.4067C71.4471 57.4067 71.8555 57.5197 72.2048 57.7457C72.5541 57.9717 72.8269 58.2881 73.025 58.6949C73.2214 59.1017 73.3204 59.5725 73.3204 60.113C73.3204 60.6384 73.2248 61.1035 73.0302 61.5047C72.8373 61.9077 72.5662 62.2222 72.2204 62.4482C71.8729 62.6742 71.4663 62.7871 71.0005 62.7871C70.5522 62.7871 70.1699 62.6817 69.8536 62.467C69.5374 62.2542 69.2958 61.9472 69.1307 61.5442C68.9657 61.1412 68.8822 60.6647 68.8822 60.1111C68.8822 59.5386 68.9657 59.0508 69.1307 58.6478C69.2958 58.2448 69.5374 57.9378 69.8536 57.725C70.1682 57.5141 70.5435 57.4067 70.9797 57.4067ZM70.759 58.3163C70.4705 58.3163 70.2116 58.3936 69.9857 58.5461C69.7581 58.6986 69.5826 58.9077 69.4557 59.1694C69.3288 59.4331 69.2663 59.7363 69.2663 60.0828C69.2663 60.4293 69.3288 60.7363 69.4557 61.0056C69.5808 61.2749 69.7581 61.4839 69.9857 61.6346C70.2133 61.7834 70.4705 61.8587 70.759 61.8587C71.0544 61.8587 71.3133 61.7815 71.5375 61.629C71.7617 61.4764 71.9372 61.2655 72.0623 61C72.1874 60.7344 72.2517 60.4275 72.2517 60.0809C72.2517 59.742 72.1892 59.4387 72.0623 59.1732C71.9372 58.9077 71.7617 58.6968 71.5375 58.5442C71.3133 58.3917 71.0527 58.3163 70.759 58.3163Z" fill="black"/>
<path d="M75.3269 55.2617C75.5041 55.2617 75.6518 55.3258 75.7682 55.4519C75.8847 55.5781 75.9438 55.7382 75.9438 55.9303C75.9438 56.1167 75.8847 56.2749 75.7682 56.4048C75.6518 56.5348 75.5041 56.5988 75.3269 56.5988C75.1548 56.5988 75.0089 56.5348 74.8889 56.4048C74.769 56.2749 74.71 56.1167 74.71 55.9303C74.71 55.7363 74.7708 55.5781 74.8889 55.4519C75.0089 55.3258 75.1548 55.2617 75.3269 55.2617ZM74.8003 57.4482H75.8499V62.7476H74.8003V57.4482Z" fill="black"/>
<path d="M79.3975 60.3823C79.0534 60.3823 78.7997 60.4388 78.6329 60.5518C78.4678 60.6648 78.3844 60.8513 78.3844 61.1111C78.3844 61.3578 78.4678 61.5537 78.6381 61.7006C78.8067 61.8475 79.0395 61.9209 79.3332 61.9209C79.5973 61.9209 79.8337 61.8701 80.0422 61.7722C80.2507 61.6723 80.4175 61.5386 80.5392 61.3673C80.6626 61.1978 80.7269 61.0057 80.7321 60.7929L80.9354 61.7609C80.7825 62.1074 80.5479 62.3673 80.2351 62.5386C79.9223 62.7119 79.5469 62.7985 79.1125 62.7985C78.7632 62.7985 78.4591 62.7251 78.2002 62.5782C77.943 62.4313 77.7432 62.2336 77.6007 61.985C77.4599 61.7345 77.3887 61.4577 77.3887 61.1507C77.3887 60.6723 77.5503 60.2882 77.8718 60.0019C78.195 59.7157 78.6503 59.5688 79.2394 59.5631H80.8607V60.3823H79.3975ZM80.7251 59.3842C80.7251 59.0377 80.6261 58.7684 80.4297 58.5763C80.2333 58.3842 79.9414 58.2863 79.5556 58.2863C79.3228 58.2863 79.0847 58.3334 78.8414 58.4256C78.5981 58.5179 78.3549 58.6554 78.1098 58.8343L77.6771 58.0961C77.9048 57.9435 78.1185 57.8174 78.3218 57.7175C78.5251 57.6177 78.7406 57.5424 78.9718 57.4878C79.2029 57.4351 79.474 57.4087 79.7867 57.4087C80.4193 57.4087 80.9058 57.5744 81.2464 57.9021C81.587 58.2317 81.7608 58.6855 81.766 59.2637L81.7747 62.7477H80.7338L80.7251 59.3842Z" fill="black"/>
<path d="M83.5693 57.4482H84.6276V62.7477H83.5693V57.4482ZM87.1977 59.7533C87.1977 59.3409 87.0935 59.017 86.8849 58.7797C86.6764 58.5443 86.3879 58.4256 86.0195 58.4256C85.5834 58.4332 85.241 58.5989 84.9925 58.9247C84.744 59.2505 84.6189 59.6573 84.6189 60.1413H84.3235C84.3235 59.4821 84.4087 58.9529 84.5807 58.5537C84.7527 58.1544 84.996 57.8625 85.3123 57.6799C85.6286 57.4972 86.0022 57.4049 86.4314 57.4049C86.8119 57.4049 87.1386 57.4878 87.4115 57.6554C87.6843 57.8211 87.8928 58.0565 88.037 58.3597C88.1813 58.6629 88.2543 59.0264 88.2543 59.452V62.7458H87.1942V59.7533H87.1977Z" fill="black"/>
<path d="M94.0685 55.7609H92.9824V62.7477H94.0685V55.7609Z" fill="black"/>
<path d="M96.0762 57.4482H97.1344V62.7477H96.0762V57.4482ZM99.7063 59.7533C99.7063 59.3409 99.602 59.017 99.3935 58.7797C99.185 58.5443 98.8965 58.4256 98.5281 58.4256C98.0919 58.4332 97.7496 58.5989 97.5011 58.9247C97.2526 59.2505 97.1275 59.6573 97.1275 60.1413H96.8321C96.8321 59.4821 96.9172 58.9529 97.0893 58.5537C97.2613 58.1544 97.5046 57.8625 97.8209 57.6799C98.1371 57.4972 98.5107 57.4049 98.94 57.4049C99.3205 57.4049 99.6472 57.4878 99.92 57.6554C100.193 57.8211 100.401 58.0565 100.546 58.3597C100.69 58.6629 100.763 59.0264 100.763 59.452V62.7458H99.7028V59.7533H99.7063Z" fill="black"/>
<path d="M101.64 57.4482H102.745L104.107 61.6893L105.452 57.4482H106.512L104.632 62.7477H103.537L101.64 57.4482Z" fill="black"/>
<path d="M110.831 59.7138C110.819 59.4143 110.756 59.1601 110.642 58.951C110.529 58.742 110.371 58.5782 110.167 58.4614C109.964 58.3446 109.731 58.2863 109.467 58.2863C109.172 58.2863 108.916 58.3597 108.697 58.5066C108.48 58.6535 108.31 58.8569 108.186 59.1205C108.063 59.3842 108.002 59.6912 108.002 60.0433C108.002 60.4237 108.068 60.7514 108.2 61.032C108.332 61.3107 108.516 61.5273 108.753 61.6817C108.989 61.8343 109.26 61.9115 109.568 61.9115C110.115 61.9115 110.574 61.7025 110.949 61.2825L111.511 61.8908C111.271 62.177 110.979 62.3974 110.636 62.5537C110.292 62.71 109.908 62.7872 109.484 62.7872C108.98 62.7872 108.542 62.6742 108.167 62.4482C107.792 62.2222 107.502 61.9077 107.291 61.5047C107.083 61.1017 106.979 60.6347 106.979 60.1017C106.979 59.5688 107.083 59.1017 107.291 58.6987C107.5 58.2957 107.792 57.9812 108.167 57.7552C108.541 57.5292 108.972 57.4124 109.457 57.4049C110.033 57.4049 110.497 57.533 110.847 57.7891C111.196 58.0452 111.446 58.4068 111.592 58.8719C111.74 59.3371 111.792 59.8908 111.749 60.5292H107.833V59.71H110.831V59.7138Z" fill="black"/>
<path d="M116.025 58.7345C115.81 58.5951 115.575 58.484 115.32 58.4012C115.064 58.3183 114.83 58.2769 114.616 58.2769C114.407 58.2769 114.235 58.3202 114.1 58.4068C113.964 58.4935 113.896 58.6366 113.896 58.8362C113.896 59.0019 113.959 59.1338 114.086 59.2298C114.211 59.3258 114.373 59.4087 114.569 59.4746C114.765 59.5405 114.974 59.6102 115.195 59.6837C115.415 59.7571 115.626 59.8513 115.825 59.968C116.025 60.0848 116.187 60.243 116.308 60.4426C116.432 60.6422 116.493 60.9059 116.493 61.2317C116.493 61.5914 116.406 61.8852 116.23 62.1149C116.055 62.3447 115.825 62.5142 115.54 62.6234C115.255 62.7326 114.946 62.7872 114.614 62.7872C114.258 62.7872 113.902 62.7251 113.545 62.597C113.189 62.4709 112.889 62.2882 112.644 62.0471L113.021 61.2693C113.236 61.4765 113.497 61.6366 113.804 61.7533C114.112 61.8701 114.397 61.9285 114.661 61.9285C114.814 61.9285 114.951 61.9078 115.071 61.8644C115.191 61.8211 115.287 61.7571 115.356 61.6705C115.426 61.5838 115.462 61.4709 115.462 61.3315C115.462 61.1451 115.401 60.9982 115.278 60.8927C115.155 60.7872 114.995 60.6987 114.798 60.629C114.602 60.5594 114.393 60.4897 114.173 60.42C113.952 60.3503 113.744 60.258 113.551 60.1451C113.358 60.0321 113.2 59.8795 113.076 59.6855C112.953 59.4935 112.892 59.2354 112.892 58.9172C112.892 58.5575 112.979 58.2675 113.151 58.0434C113.323 57.8211 113.545 57.6573 113.818 57.5537C114.091 57.4501 114.385 57.3993 114.698 57.3993C115.005 57.3993 115.311 57.4464 115.619 57.5386C115.926 57.6309 116.189 57.7609 116.411 57.9285L116.025 58.7345Z" fill="black"/>
<path d="M117.443 57.6366H120.63V58.4558H117.443V57.6366ZM119.185 61.0716C119.185 61.3579 119.23 61.5518 119.322 61.6554C119.414 61.759 119.543 61.8098 119.709 61.8098C119.821 61.8098 119.935 61.7891 120.055 61.7496C120.175 61.71 120.305 61.6498 120.446 61.5707L120.714 62.3993C120.523 62.5255 120.326 62.6234 120.125 62.6931C119.921 62.7628 119.716 62.7985 119.508 62.7985C119.263 62.7985 119.035 62.7477 118.827 62.6441C118.618 62.5405 118.451 62.3767 118.324 62.1507C118.199 61.9247 118.135 61.6309 118.135 61.2731V56.1921H119.185V61.0716Z" fill="black"/>
<path d="M122.067 57.4482H123.117V62.7476H122.067V57.4482ZM125.631 59.7533C125.631 59.3333 125.531 59.0056 125.327 58.7702C125.124 58.5348 124.843 58.4162 124.479 58.4162C124.055 58.4293 123.723 58.5988 123.48 58.9246C123.237 59.2504 123.117 59.6534 123.117 60.1318H122.822C122.822 59.4802 122.907 58.9548 123.075 58.5555C123.244 58.1563 123.484 57.8644 123.793 57.6817C124.102 57.499 124.471 57.4067 124.893 57.4067C125.267 57.4067 125.588 57.4896 125.856 57.6572C126.123 57.8229 126.328 58.0583 126.473 58.3615C126.617 58.6647 126.69 59.0282 126.69 59.4538V62.7476H125.63V59.7533H125.631ZM129.196 59.7533C129.196 59.3333 129.093 59.0056 128.886 58.7702C128.681 58.5348 128.396 58.4162 128.035 58.4162C127.618 58.4293 127.289 58.5988 127.049 58.9246C126.81 59.2504 126.69 59.6534 126.69 60.1318H126.386C126.386 59.4802 126.469 58.9548 126.639 58.5555C126.808 58.1563 127.048 57.8644 127.357 57.6817C127.666 57.499 128.035 57.4067 128.457 57.4067C128.831 57.4067 129.152 57.4896 129.42 57.6572C129.687 57.8229 129.892 58.0583 130.037 58.3615C130.181 58.6647 130.252 59.0282 130.252 59.4538V62.7476H129.194V59.7533H129.196Z" fill="black"/>
<path d="M135.44 59.7138C135.428 59.4143 135.366 59.1601 135.251 58.951C135.138 58.742 134.98 58.5782 134.777 58.4614C134.573 58.3446 134.34 58.2863 134.076 58.2863C133.781 58.2863 133.525 58.3597 133.307 58.5066C133.089 58.6535 132.919 58.8569 132.796 59.1205C132.672 59.3842 132.611 59.6912 132.611 60.0433C132.611 60.4237 132.677 60.7514 132.81 61.032C132.942 61.3107 133.126 61.5273 133.362 61.6817C133.598 61.8343 133.87 61.9115 134.177 61.9115C134.725 61.9115 135.183 61.7025 135.559 61.2825L136.12 61.8908C135.88 62.177 135.588 62.3974 135.246 62.5537C134.902 62.71 134.518 62.7872 134.094 62.7872C133.59 62.7872 133.152 62.6742 132.777 62.4482C132.401 62.2222 132.111 61.9077 131.901 61.5047C131.692 61.1017 131.588 60.6347 131.588 60.1017C131.588 59.5688 131.692 59.1017 131.901 58.6987C132.109 58.2957 132.401 57.9812 132.777 57.7552C133.15 57.5292 133.581 57.4124 134.066 57.4049C134.643 57.4049 135.107 57.533 135.456 57.7891C135.805 58.0452 136.056 58.4068 136.202 58.8719C136.349 59.3371 136.401 59.8908 136.358 60.5292H132.443V59.71H135.44V59.7138Z" fill="black"/>
<path d="M137.844 57.4482H138.902V62.7477H137.844V57.4482ZM141.472 59.7533C141.472 59.3409 141.368 59.017 141.159 58.7797C140.951 58.5443 140.662 58.4256 140.294 58.4256C139.858 58.4332 139.515 58.5989 139.267 58.9247C139.018 59.2505 138.893 59.6573 138.893 60.1413H138.598C138.598 59.4821 138.683 58.9529 138.855 58.5537C139.027 58.1544 139.27 57.8625 139.587 57.6799C139.903 57.4972 140.277 57.4049 140.706 57.4049C141.086 57.4049 141.413 57.4878 141.686 57.6554C141.959 57.8211 142.167 58.0565 142.311 58.3597C142.456 58.6629 142.529 59.0264 142.529 59.452V62.7458H141.469V59.7533H141.472Z" fill="black"/>
<path d="M143.83 57.6366H147.017V58.4558H143.83V57.6366ZM145.571 61.0716C145.571 61.3579 145.616 61.5518 145.709 61.6554C145.801 61.759 145.929 61.8098 146.096 61.8098C146.207 61.8098 146.322 61.7891 146.442 61.7496C146.562 61.71 146.692 61.6498 146.833 61.5707L147.1 62.3993C146.909 62.5255 146.713 62.6234 146.511 62.6931C146.308 62.7628 146.103 62.7985 145.895 62.7985C145.649 62.7985 145.422 62.7477 145.213 62.6441C145.005 62.5405 144.838 62.3767 144.711 62.1507C144.586 61.9247 144.522 61.6309 144.522 61.2731V56.1921H145.571V61.0716Z" fill="black"/>
<path d="M156.052 57.5781C155.82 57.2994 155.543 57.079 155.223 56.919C154.904 56.7589 154.582 56.6798 154.257 56.6798C153.938 56.6798 153.639 56.7438 153.359 56.8738C153.079 57.0037 152.834 57.1845 152.622 57.418C152.41 57.6515 152.245 57.9227 152.129 58.2316C152.012 58.5404 151.953 58.8757 151.953 59.2354C151.953 59.5875 152.012 59.919 152.129 60.2278C152.245 60.5367 152.41 60.8079 152.622 61.0414C152.834 61.2749 153.079 61.4576 153.359 61.5894C153.639 61.7231 153.938 61.789 154.257 61.789C154.582 61.789 154.902 61.7137 155.215 61.5649C155.528 61.4161 155.807 61.2109 156.052 60.951L156.697 61.6798C156.482 61.9133 156.238 62.1167 155.965 62.2881C155.693 62.4613 155.406 62.595 155.109 62.6873C154.812 62.7796 154.509 62.8267 154.202 62.8267C153.729 62.8267 153.289 62.7344 152.884 62.5517C152.48 62.3691 152.125 62.1148 151.821 61.789C151.517 61.4632 151.279 61.0828 151.107 60.6459C150.935 60.209 150.85 59.7419 150.85 59.2429C150.85 58.7438 150.935 58.2787 151.107 57.8512C151.279 57.4218 151.52 57.0451 151.83 56.7175C152.139 56.3917 152.499 56.1393 152.907 55.9585C153.315 55.7796 153.759 55.6892 154.238 55.6892C154.546 55.6892 154.846 55.7325 155.14 55.8192C155.435 55.9058 155.714 56.0282 155.978 56.1883C156.242 56.3483 156.478 56.5404 156.687 56.7664L156.052 57.5781Z" fill="black"/>
<path d="M160.076 57.4067C160.58 57.4067 161.023 57.5197 161.407 57.7457C161.791 57.9717 162.09 58.2862 162.306 58.6892C162.521 59.0922 162.627 59.5593 162.627 60.0922C162.627 60.6252 162.52 61.0941 162.306 61.499C162.09 61.9058 161.791 62.2203 161.407 62.4482C161.023 62.6742 160.58 62.7872 160.076 62.7872C159.572 62.7872 159.127 62.6742 158.74 62.4482C158.352 62.2222 158.052 61.9058 157.838 61.499C157.623 61.0941 157.517 60.6233 157.517 60.0922C157.517 59.5593 157.624 59.0922 157.838 58.6892C158.054 58.2862 158.354 57.9717 158.74 57.7457C159.126 57.5197 159.574 57.4067 160.076 57.4067ZM160.076 58.3352C159.781 58.3352 159.52 58.4105 159.293 58.5593C159.065 58.7099 158.889 58.9171 158.763 59.1826C158.637 59.4482 158.573 59.7551 158.573 60.1017C158.573 60.4538 158.636 60.7646 158.763 61.0301C158.889 61.2956 159.065 61.5047 159.293 61.6534C159.52 61.8041 159.781 61.8776 160.076 61.8776C160.372 61.8776 160.631 61.8022 160.855 61.6534C161.079 61.5047 161.254 61.2956 161.38 61.0301C161.505 60.7646 161.569 60.4538 161.569 60.1017C161.569 59.7551 161.506 59.4501 161.38 59.1826C161.253 58.9171 161.079 58.7081 160.855 58.5593C160.631 58.4105 160.372 58.3352 160.076 58.3352Z" fill="black"/>
<path d="M164.111 57.4482H165.161V62.7476H164.111V57.4482ZM167.675 59.7533C167.675 59.3333 167.575 59.0056 167.371 58.7702C167.168 58.5348 166.886 58.4162 166.523 58.4162C166.099 58.4293 165.767 58.5988 165.524 58.9246C165.281 59.2504 165.161 59.6534 165.161 60.1318H164.865C164.865 59.4802 164.951 58.9548 165.119 58.5555C165.288 58.1563 165.528 57.8644 165.837 57.6817C166.146 57.499 166.515 57.4067 166.937 57.4067C167.31 57.4067 167.632 57.4896 167.9 57.6572C168.167 57.8229 168.372 58.0583 168.516 58.3615C168.661 58.6647 168.734 59.0282 168.734 59.4538V62.7476H167.674V59.7533H167.675ZM171.24 59.7533C171.24 59.3333 171.137 59.0056 170.93 58.7702C170.723 58.5348 170.44 58.4162 170.079 58.4162C169.662 58.4293 169.333 58.5988 169.093 58.9246C168.854 59.2504 168.734 59.6534 168.734 60.1318H168.43C168.43 59.4802 168.513 58.9548 168.683 58.5555C168.852 58.1563 169.092 57.8644 169.401 57.6817C169.71 57.499 170.079 57.4067 170.501 57.4067C170.875 57.4067 171.196 57.4896 171.464 57.6572C171.731 57.8229 171.936 58.0583 172.081 58.3615C172.225 58.6647 172.296 59.0282 172.296 59.4538V62.7476H171.238V59.7533H171.24Z" fill="black"/>
<path d="M174.14 57.4482H175.2V64.6836H174.14V57.4482ZM176.913 57.4067C177.381 57.4067 177.789 57.5197 178.138 57.7457C178.487 57.9717 178.76 58.2881 178.958 58.6949C179.155 59.1017 179.252 59.5725 179.252 60.113C179.252 60.6384 179.156 61.1035 178.962 61.5047C178.769 61.9077 178.498 62.2222 178.152 62.4482C177.805 62.6742 177.398 62.7872 176.932 62.7872C176.484 62.7872 176.102 62.6817 175.785 62.467C175.469 62.2542 175.227 61.9472 175.062 61.5442C174.897 61.1412 174.814 60.6647 174.814 60.1111C174.814 59.5386 174.897 59.0508 175.062 58.6478C175.227 58.2448 175.469 57.9378 175.785 57.725C176.1 57.5141 176.477 57.4067 176.913 57.4067ZM176.692 58.3163C176.404 58.3163 176.145 58.3936 175.919 58.5461C175.691 58.6986 175.516 58.9077 175.389 59.1695C175.262 59.4331 175.2 59.7363 175.2 60.0828C175.2 60.4293 175.262 60.7363 175.389 61.0056C175.514 61.2749 175.691 61.484 175.919 61.6346C176.147 61.7834 176.404 61.8587 176.692 61.8587C176.988 61.8587 177.247 61.7815 177.471 61.629C177.695 61.4764 177.871 61.2655 177.996 61C178.121 60.7344 178.185 60.4275 178.185 60.0809C178.185 59.742 178.123 59.4388 177.996 59.1732C177.871 58.9077 177.695 58.6968 177.471 58.5442C177.245 58.3917 176.986 58.3163 176.692 58.3163Z" fill="black"/>
<path d="M182.337 60.3823C181.993 60.3823 181.739 60.4388 181.572 60.5518C181.407 60.6648 181.324 60.8513 181.324 61.1111C181.324 61.3578 181.407 61.5537 181.578 61.7006C181.746 61.8475 181.979 61.9209 182.273 61.9209C182.537 61.9209 182.773 61.8701 182.982 61.7722C183.19 61.6723 183.357 61.5386 183.479 61.3673C183.6 61.1959 183.666 61.0057 183.672 60.7929L183.875 61.7609C183.722 62.1074 183.487 62.3673 183.175 62.5386C182.862 62.7119 182.486 62.7985 182.052 62.7985C181.703 62.7985 181.399 62.7251 181.14 62.5782C180.882 62.4313 180.683 62.2336 180.54 61.985C180.399 61.7345 180.328 61.4577 180.328 61.1507C180.328 60.6723 180.49 60.2882 180.811 60.0019C181.133 59.7157 181.59 59.5688 182.179 59.5631H183.8V60.3823H182.337ZM183.665 59.3842C183.665 59.0377 183.566 58.7684 183.369 58.5763C183.173 58.3842 182.881 58.2863 182.493 58.2863C182.261 58.2863 182.022 58.3334 181.779 58.4256C181.536 58.5179 181.293 58.6554 181.048 58.8343L180.615 58.0961C180.842 57.9435 181.056 57.8174 181.26 57.7175C181.463 57.6177 181.678 57.5424 181.909 57.4878C182.141 57.4351 182.412 57.4087 182.724 57.4087C183.357 57.4087 183.844 57.5744 184.184 57.9021C184.525 58.2317 184.699 58.6855 184.704 59.2637L184.712 62.7477H183.672L183.665 59.3842Z" fill="black"/>
<path d="M186.51 57.4482H187.568V62.7477H186.51V57.4482ZM190.138 59.7533C190.138 59.3409 190.034 59.017 189.825 58.7797C189.617 58.5443 189.328 58.4256 188.96 58.4256C188.524 58.4332 188.181 58.5989 187.933 58.9247C187.684 59.2505 187.559 59.6573 187.559 60.1413H187.264C187.264 59.4821 187.349 58.9529 187.521 58.5537C187.693 58.1544 187.936 57.8625 188.253 57.6799C188.569 57.4972 188.943 57.4049 189.372 57.4049C189.752 57.4049 190.079 57.4878 190.352 57.6554C190.625 57.8211 190.833 58.0565 190.977 58.3597C191.122 58.6629 191.195 59.0264 191.195 59.452V62.7458H190.135V59.7533H190.138Z" fill="black"/>
<path d="M194.771 63.4953C194.618 63.902 194.406 64.209 194.135 64.418C193.866 64.6271 193.546 64.7325 193.177 64.7325C192.957 64.7325 192.755 64.6968 192.574 64.6233C192.394 64.5499 192.216 64.4406 192.044 64.2937L192.496 63.4444C192.717 63.6177 192.929 63.7043 193.132 63.7043C193.292 63.7043 193.436 63.6553 193.565 63.5555C193.694 63.4557 193.798 63.3032 193.878 63.096L194.043 62.676L192.017 57.4463H193.113L194.578 61.5386L195.94 57.4463H196.999L194.771 63.4953Z" fill="black"/>
</g>
<defs>
<clipPath id="clip0_358_814">
<rect width="197" height="67" fill="white"/>
</clipPath>
</defs>
</svg>
